<svg width="16" height="16" viewBox="0 0 16 16" fill="none" xmlns="http://www.w3.org/2000/svg">
<path fill-rule="evenodd" clip-rule="evenodd" d="M8.88906 0.888889C8.88906 0.397969 8.49109 0 8.00017 0C7.50925 0 7.11128 0.397969 7.11128 0.888889V7.11113H0.888889C0.397969 7.11113 0 7.5091 0 8.00002C0 8.49094 0.397969 8.88891 0.888889 8.88891H7.11128V15.1111C7.11128 15.602 7.50925 16 8.00017 16C8.49109 16 8.88906 15.602 8.88906 15.1111V8.88891H15.1111C15.602 8.88891 16 8.49094 16 8.00002C16 7.5091 15.602 7.11113 15.1111 7.11113H8.88906V0.888889Z" fill="#666666"/>
</svg>
