<svg width="24" height="24" viewBox="0 0 24 24" fill="none" xmlns="http://www.w3.org/2000/svg">
<path d="M14.9857 2.00006C18.0482 2.00006 20 3.43509 20 6.25771V20.331C20 20.7737 19.8285 21.1982 19.5232 21.5113C19.2179 21.8243 18.8038 22.0001 18.3608 22.0001C18.0965 21.9958 17.8368 21.9292 17.5863 21.7972L11.974 18.6636L6.38442 21.8037C5.7112 22.1625 4.89545 21.997 4.38431 21.3976L4.28627 21.272L4.19263 21.1174C4.07042 20.8782 4.00448 20.613 4 20.331V6.4344C4 3.49935 5.90915 2.00006 9.01434 2.00006H14.9857ZM14.9857 3.44781H9.01434C6.61925 3.44781 5.41205 4.39585 5.41205 6.4344L5.41195 20.3189C5.41267 20.3631 5.42346 20.4065 5.41172 20.3898L5.44919 20.452C5.51373 20.5421 5.63485 20.5716 5.71962 20.5266L11.3068 17.3883C11.7233 17.1577 12.225 17.1577 12.6435 17.3895L18.2463 20.5174C18.2887 20.5397 18.3355 20.5517 18.372 20.5524C18.4293 20.5524 18.4842 20.5291 18.5247 20.4876C18.5652 20.446 18.5879 20.3897 18.5879 20.331V6.25771C18.5879 4.35794 17.35 3.44781 14.9857 3.44781ZM15.4079 8.31669C15.7978 8.31669 16.1139 8.64078 16.1139 9.04057C16.1139 9.40703 15.8483 9.7099 15.5037 9.75783L15.4079 9.76444H8.54042C8.1505 9.76444 7.8344 9.44035 7.8344 9.04057C7.8344 8.6741 8.10001 8.37123 8.44462 8.3233L8.54042 8.31669H15.4079Z" fill="#767676"/>
</svg>
