<svg width="28" height="28" viewBox="0 0 28 28" fill="none" xmlns="http://www.w3.org/2000/svg">
<path fill-rule="evenodd" clip-rule="evenodd" d="M13.7063 1.16699C17.0582 1.16699 20.2082 2.47016 22.5742 4.83733C27.4649 9.72799 27.4649 17.6847 22.5742 22.5753C20.1767 24.974 16.9485 26.2433 13.6783 26.2433C11.8957 26.2433 10.1013 25.8665 8.42252 25.0895C7.92785 24.8912 7.46468 24.7045 7.13218 24.7045C6.74951 24.7068 6.23501 24.8842 5.73801 25.0557C4.71835 25.4057 3.44901 25.842 2.50985 24.9063C1.57418 23.9695 2.00585 22.7037 2.35351 21.6852C2.52501 21.1835 2.70118 20.6655 2.70118 20.2735C2.70118 19.9515 2.54601 19.5408 2.30801 18.9493C0.122847 14.2302 1.13318 8.54266 4.83968 4.83849C7.20568 2.47133 10.3545 1.16699 13.7063 1.16699ZM13.7075 2.91699C10.8223 2.91699 8.11218 4.03933 6.07635 6.07633C2.88668 9.26366 2.01868 14.1578 3.91451 18.2563C4.18751 18.9318 4.45118 19.5898 4.45118 20.2735C4.45118 20.956 4.21668 21.6432 4.01018 22.2498C3.83985 22.7492 3.58201 23.5028 3.74768 23.6685C3.90985 23.8365 4.66818 23.5717 5.16868 23.4002C5.76951 23.1948 6.45085 22.9592 7.12635 22.9545C7.80301 22.9545 8.44118 23.2112 9.11668 23.483C13.2548 25.3963 18.149 24.526 21.3375 21.3387C25.5445 17.1293 25.5445 10.2822 21.3375 6.07516C19.3005 4.03816 16.5915 2.91699 13.7075 2.91699ZM18.3122 13.0235C18.9562 13.0235 19.4789 13.545 19.4789 14.1901C19.4789 14.8353 18.9562 15.3568 18.3122 15.3568C17.6682 15.3568 17.1409 14.8353 17.1409 14.1901C17.1409 13.545 17.6577 13.0235 18.3017 13.0235H18.3122ZM13.6353 13.0235C14.2793 13.0235 14.802 13.545 14.802 14.1901C14.802 14.8353 14.2793 15.3568 13.6353 15.3568C12.9913 15.3568 12.464 14.8353 12.464 14.1901C12.464 13.545 12.9796 13.0235 13.6248 13.0235H13.6353ZM8.9579 13.0235C9.6019 13.0235 10.1246 13.545 10.1246 14.1901C10.1246 14.8353 9.6019 15.3568 8.9579 15.3568C8.3139 15.3568 7.78657 14.8353 7.78657 14.1901C7.78657 13.545 8.3034 13.0235 8.9474 13.0235H8.9579Z" fill="black" fill-opacity="0.6"/>
</svg>
