<svg xmlns="http://www.w3.org/2000/svg" version="1.1" viewBox="-5.0 -10.0 110.0 135.0">
 <g>
  <path d="m66.449 49.211c-0.23828-0.26172-0.48047-0.51953-0.80859-0.85156-0.62891-0.60938-1.3281-1.1406-2.0898-1.5898-1.5117-0.89062-3.2305-1.4414-4.9805-1.5703-0.94141-0.058594-1.5898-0.050781-2.5195 0.011719-0.87109 0.078124-1.7383 0.25-2.5703 0.51953-1.6719 0.53906-3.2188 1.4297-4.5195 2.6016l-0.44922 0.42188c-0.10156 0.089844-0.19922 0.19141-0.30859 0.28125-0.21094 0.17969-0.42969 0.35156-0.67188 0.5-0.46875 0.30859-0.96094 0.55859-1.4883 0.73828-0.51953 0.17969-1.0586 0.30078-1.6094 0.35156-0.26953 0.03125-0.53906 0.03125-0.80859 0.019531-0.26172 0-0.53125-0.039062-0.92188-0.070312-1.0898-0.12109-2.0781-0.53125-2.8906-1.1484-0.39844-0.30859-0.75-0.67188-1.0391-1.0586-0.14063-0.19922-0.26953-0.39844-0.37891-0.60938-0.039062-0.089843-0.12891-0.23047-0.23828-0.39844l-0.28906-0.46875c-0.71875-1.1719-1.8203-2.8203-5.3203 0.75-2.8789 2.9297-1.25 3.8984-0.39062 4.7812l0.76953 0.76953c0.35156 0.35156 0.73047 0.67969 1.1211 0.98047 0.78125 0.60938 1.6289 1.1289 2.5312 1.5391 1.7891 0.83984 3.7695 1.25 5.7188 1.2305 0.58984 0 0.67188-0.019531 1.2695-0.050781 0.48828-0.03125 0.96875-0.089844 1.4492-0.17188 0.96094-0.16016 1.8906-0.42188 2.7891-0.78125 1.7891-0.71094 3.4219-1.7891 4.7812-3.1289 0.71875-0.73047 1.4883-1.1914 2.3789-1.5195 0.44141-0.16016 0.89844-0.26172 1.3594-0.32031 0.23047-0.03125 0.46875-0.039062 0.69922-0.050781h0.51953 0.35938c0.92969 0.058593 1.8516 0.30859 2.6719 0.76172 0.41016 0.21875 0.80078 0.48828 1.1484 0.80078l0.26172 0.23828 0.37891 0.37891 0.78125 0.76953c0.69141 0.67969 1 2.3906 3.6484-0.17188 2.8594-2.7617 1.0117-3.0391 0.39844-3.7188l-0.73047-0.80078z"/>
  <path d="m7.1914 75.012-0.41016 1.4609c-0.17188 0.64062-0.30859 1.2812-0.39844 1.9414-0.17969 1.3086-0.19922 2.6602-0.011718 4 0.32812 2.6719 1.6211 5.3711 3.4688 7.3203 1.8516 1.9883 4.2891 3.4297 6.9492 4.0391 1.6094 0.39062 3.3086 0.44922 4.9492 0.23047 0.41016-0.058594 0.82031-0.12109 1.2188-0.23047l0.60938-0.14844 0.46094-0.12891 1.7695-0.51172 3.5391-1.0117 0.87891-0.25c0.23047-0.058594 0.44922-0.12109 0.67969-0.17188 0.44922-0.10156 0.91016-0.17188 1.3594-0.21094 0.91016-0.078125 1.8008-0.03125 2.6602 0.14062 0.46094 0.089843 0.78125 0.17969 1.3281 0.37109 0.62891 0.21094 1.2695 0.41016 1.9102 0.60156 2.5703 0.73828 5.2109 1.2383 7.8711 1.4883 5.3086 0.5 10.719 0 15.879-1.4414 5.1484-1.4414 10-3.8789 14.27-7.0703 8.5391-6.3594 14.738-15.859 16.898-26.359 2.2188-10.449 0.42969-21.68-5.0195-30.91-1.75-3.0391-4.2617-6.6797-6.9414-9.0117-2.6602-2.3516-5.2617-3.3984-6.4883-2.0586-1.3711 1.4883 0.078125 3.4102 2.1211 5.6797 2.0586 2.2617 4.6406 5.1016 6.1211 7.6211 6.8594 11.27 7.1992 26.148 0.83984 37.672-3.1094 5.7812-7.7305 10.762-13.27 14.289-2.7812 1.7383-5.7305 3.25-8.8789 4.1914-3.1211 0.98828-6.3594 1.6484-9.6484 1.7305-3.2812 0.25-6.5781-0.078126-9.7891-0.76172-0.80078-0.17188-1.6016-0.37109-2.3906-0.60156l-1.1797-0.35938-1.3086-0.42188c-1.9688-0.57031-4.0312-0.69922-6.0195-0.46094-0.98047 0.10938-2.0117 0.35156-2.8789 0.60156l-5.0234 1.4219-1.25 0.35938c-0.33984 0.070313-0.66016 0.17188-1 0.21094-2.6914 0.42188-5.5781-0.67969-7.2891-2.8203-1.7617-2.0898-2.1719-5-1.25-7.8281l1.4609-5 0.37109-1.25c0.14062-0.5 0.26172-1 0.35156-1.5 0.17969-1.0117 0.25-2.0391 0.21875-3.0586-0.039063-1.0195-0.16016-2.0312-0.39063-3.0117-0.10937-0.48828-0.25-0.98047-0.39844-1.4609l-0.37109-1.1914c-0.46094-1.5703-0.82031-3.1719-1.0781-4.7812-0.51172-3.2305-0.57812-6.5117-0.23047-9.7617 1.0703-9.8789 6.3711-19.09 14.078-25.172 3.8711-3.0117 8.3086-5.2383 12.969-6.5117 4.6602-1.25 9.5391-1.6016 14.289-0.92969 4.0391 0.51172 8.7188 2 12.41 3.3086 3.7109 1.2383 6.6797 2.2109 8.1289 0.12891 1.1602-1.6484-0.94141-4.5586-4.8789-6.8906-3.8984-2.3906-9.4492-3.8789-13.949-4.3711-5.8281-0.69922-11.84-0.26172-17.512 1.4219-5.6719 1.6602-10.969 4.4688-15.539 8.1719-9.1289 7.3984-15.16 18.512-16.219 30.238v0.03125 0.03125c-0.37891 4.3594-0.12109 8.7891 0.80859 13.07 0.23047 1.0781 0.5 2.1406 0.80859 3.1914 0.14844 0.53125 0.32031 1.0508 0.48828 1.5703l0.19922 0.62109c0.050781 0.17969 0.10938 0.35938 0.14844 0.53906 0.35938 1.4492 0.39844 2.9219 0.089844 4.3008l-1.5703 5.6406z"/>
 </g>
<text x="0.0" y="117.5" font-size="5.0" font-weight="bold" font-family="Arbeit Regular, Helvetica, Arial-Unicode, Arial, Sans-serif" fill="#000000">Created by Gregor Cresnar</text><text x="0.0" y="122.5" font-size="5.0" font-weight="bold" font-family="Arbeit Regular, Helvetica, Arial-Unicode, Arial, Sans-serif" fill="#000000">from Noun Project</text></svg>