<svg width="24" height="25" viewBox="0 0 24 25" fill="none" xmlns="http://www.w3.org/2000/svg">
<path d="M16.4805 11.9298C16.4154 11.8578 16.3493 11.7869 16.2598 11.6955C16.0881 11.5279 15.8973 11.3818 15.6893 11.2582C15.2767 11.0132 14.8076 10.8617 14.3299 10.8263C14.073 10.8102 13.896 10.8123 13.6423 10.8295C13.4045 10.851 13.1678 10.8983 12.9407 10.9724C12.4844 11.1207 12.0622 11.3657 11.7071 11.688L11.5845 11.8041C11.5568 11.8288 11.5301 11.8567 11.5003 11.8814C11.4427 11.9309 11.383 11.9781 11.3169 12.019C11.189 12.1039 11.0546 12.1726 10.9107 12.2221C10.7689 12.2715 10.6217 12.3048 10.4714 12.3188C10.3978 12.3274 10.3243 12.3274 10.2507 12.3241C10.1793 12.3241 10.1057 12.3134 9.99908 12.3048C9.70163 12.2715 9.43188 12.1587 9.21011 11.9889C9.10136 11.904 9.0054 11.8041 8.92649 11.6977C8.88811 11.6429 8.85292 11.5881 8.82307 11.5301C8.81241 11.5054 8.78788 11.4667 8.75803 11.4205L8.67913 11.2915C8.48295 10.9692 8.18229 10.5158 7.22698 11.4979C6.4412 12.3037 6.8858 12.5702 7.12037 12.813L7.3304 13.0247C7.42636 13.1214 7.52978 13.2117 7.6364 13.2944C7.84964 13.462 8.081 13.6049 8.32728 13.7178C8.81561 13.9488 9.35615 14.0616 9.8882 14.0563C10.0492 14.0563 10.0716 14.0509 10.2347 14.0423C10.368 14.0337 10.4991 14.0176 10.6303 13.995C10.8925 13.9509 11.1463 13.879 11.3915 13.7801C11.8799 13.5845 12.3255 13.288 12.6965 12.9194C12.8927 12.7185 13.1028 12.5917 13.3458 12.5015C13.4663 12.4574 13.5911 12.4295 13.7169 12.4133C13.7798 12.4047 13.8448 12.4026 13.9077 12.3994H14.0495H14.1476C14.4014 12.4155 14.653 12.4843 14.8769 12.6089C14.9889 12.6691 15.0955 12.7432 15.1904 12.8292L15.2618 12.8947L15.3652 12.999L15.5785 13.2106C15.7672 13.3976 15.8514 13.8682 16.5743 13.1633C17.3547 12.4037 16.8504 12.3274 16.683 12.1404L16.4836 11.9201L16.4805 11.9298Z" fill="#666666"/>
<path d="M0.306186 19.0269L0.194235 19.4288C0.147321 19.605 0.110007 19.7812 0.085483 19.9628C0.0364374 20.3227 0.0311067 20.6945 0.0822845 21.0631C0.171843 21.798 0.524756 22.5405 1.02908 23.0767C1.53446 23.6236 2.19977 24.0201 2.92583 24.1877C3.3651 24.2952 3.82889 24.3113 4.27669 24.2511C4.38864 24.235 4.50059 24.2178 4.60935 24.1877L4.77568 24.1469L4.90149 24.1114L5.38447 23.9707L6.35045 23.6924L6.59034 23.6236C6.65325 23.6075 6.71295 23.5903 6.77586 23.5763C6.89847 23.5484 7.02428 23.5291 7.1469 23.5183C7.39533 23.4968 7.63842 23.5097 7.87299 23.557C7.9988 23.5817 8.08623 23.6064 8.23549 23.6591C8.40715 23.7171 8.58199 23.7719 8.75687 23.8246C9.45842 24.0276 10.1792 24.1652 10.9052 24.2339C12.3542 24.3715 13.8309 24.2339 15.2393 23.8375C16.6446 23.441 17.9688 22.7705 19.1343 21.8926C21.465 20.1433 23.1569 17.5302 23.7465 14.6419C24.3521 11.7677 23.8638 8.67836 22.3764 6.13943C21.8988 5.30345 21.2132 4.30202 20.4818 3.66055C19.7557 3.01369 19.0457 2.72574 18.7109 3.09428C18.3366 3.50368 18.7322 4.03234 19.2898 4.65662C19.8517 5.27875 20.5565 6.05993 20.9605 6.75298C22.8328 9.85306 22.9255 13.9456 21.1898 17.1155C20.3411 18.7058 19.0798 20.0759 17.5678 21.0461C16.8087 21.5242 16.0037 21.9401 15.1443 22.199C14.2925 22.4709 13.4086 22.6524 12.5109 22.675C11.6153 22.7438 10.7154 22.6535 9.83897 22.4655C9.6204 22.4182 9.40182 22.3634 9.18647 22.3L8.86447 22.2012L8.5073 22.0851C7.96992 21.9282 7.407 21.8928 6.86431 21.9583C6.59669 21.9884 6.31522 22.055 6.07852 22.1238L4.70741 22.5149L4.36623 22.6138C4.27347 22.6331 4.18604 22.6611 4.09328 22.6718C3.35868 22.7879 2.57077 22.4848 2.10376 21.896C1.62291 21.3212 1.51095 20.5206 1.76258 19.7427L2.16132 18.3673L2.26261 18.0235C2.30099 17.886 2.33405 17.7484 2.35857 17.6109C2.40761 17.3326 2.4268 17.05 2.41827 16.7696C2.40761 16.4891 2.37456 16.2108 2.31165 15.9411C2.2818 15.8068 2.24342 15.6714 2.2029 15.5393L2.10161 15.2115C1.9758 14.7796 1.87771 14.339 1.80735 13.8964C1.66768 13.0077 1.64956 12.1052 1.74445 11.2112C2.03658 8.49376 3.48341 5.96003 5.58697 4.28703C6.64357 3.45859 7.85476 2.84611 9.12679 2.49584C10.3988 2.15199 11.7304 2.05528 13.0269 2.2401C14.1294 2.38086 15.4067 2.79025 16.4142 3.15021C17.427 3.49083 18.2373 3.75837 18.6329 3.18567C18.9496 2.73224 18.3759 1.93172 17.3012 1.29025C16.2372 0.632659 14.7221 0.223267 13.4939 0.0878761C11.9032 -0.104461 10.2622 0.0158839 8.7141 0.479003C7.16598 0.93568 5.72017 1.70825 4.47281 2.72687C1.98112 4.76198 0.334958 7.81903 0.0459092 11.0445V11.0531V11.0617C-0.0575125 12.2609 0.0128582 13.4794 0.26661 14.6569C0.329516 14.9535 0.403082 15.2458 0.487311 15.5348C0.527827 15.6809 0.574738 15.8239 0.620584 15.9668L0.67496 16.1376C0.688821 16.187 0.704815 16.2365 0.715476 16.2859C0.813567 16.6845 0.824229 17.0896 0.739999 17.4689L0.311393 19.0205L0.306186 19.0269Z" fill="#666666"/>
</svg>
