<svg width="21" height="21" viewBox="0 0 21 21" fill="none" xmlns="http://www.w3.org/2000/svg">
<path d="M1.49603 11.0303L1.49603 3.51541H4.82903L4.99733 3.49651C8.09163 2.80771 10.142 2.31106 11.1639 2.00341C12.5213 1.59496 13.0273 1.49521 13.948 1.43641C14.6366 1.39126 15.4187 1.64431 15.7751 1.99081C15.972 2.18191 16.1194 2.57461 16.1777 3.18361C16.1898 3.31132 16.2376 3.43357 16.3162 3.53758C16.3948 3.64158 16.5012 3.7235 16.6243 3.77476C16.8982 3.88816 17.1259 4.07296 17.3162 4.34176C17.4922 4.58746 17.6066 5.04526 17.6275 5.70781C17.6312 5.82962 17.6674 5.94851 17.7326 6.05324C17.7979 6.15797 17.8901 6.24508 18.0004 6.30631C18.6406 6.66016 18.9574 7.05916 19.0234 7.52746C19.096 8.04511 18.92 8.62786 18.4591 9.29146C18.351 9.44709 18.3107 9.63685 18.3469 9.82039C18.383 10.0039 18.4928 10.1668 18.6527 10.2743C19.0938 10.5704 19.3358 10.982 19.3963 11.5658C19.4931 12.4961 18.8716 13.1838 17.4647 13.3214C16.2117 13.4397 14.9465 13.339 13.7313 13.0242C13.5935 12.9898 13.4482 12.9937 13.3126 13.0355C13.177 13.0772 13.0567 13.1551 12.9659 13.2599C12.8751 13.3646 12.8175 13.492 12.7999 13.627C12.7823 13.7619 12.8055 13.8989 12.8667 14.0217C13.4167 15.1326 13.7225 16.0493 13.794 16.7591C13.8875 17.7009 13.6598 18.3834 13.1274 18.9462C12.7237 19.3725 12.078 19.6161 11.836 19.5657C11.517 19.5006 11.3091 19.3242 11.0385 18.7068C10.879 18.3414 10.802 18.0306 10.67 17.3051C10.5435 16.6163 10.4742 16.3055 10.3301 15.8981C9.89563 14.6633 8.82973 13.3833 7.39863 12.5003C6.39565 11.8821 5.30863 11.3981 4.16793 11.0618C4.09667 11.0408 4.0225 11.0302 3.94793 11.0303H1.49603ZM1.44983 2.08426C1.09453 2.07481 0.775532 2.15041 0.508232 2.32891C0.167232 2.55676 0.0066318 2.91586 0.0033318 3.32956L0.0066318 11.0187C-0.0307682 11.4282 0.0957318 11.8041 0.394932 12.0834C0.675432 12.3459 1.04173 12.4698 1.42893 12.4614H3.83243C4.80468 12.7571 5.7316 13.1744 6.58903 13.7025C7.74183 14.4144 8.59103 15.435 8.91553 16.3548C9.02663 16.6719 9.08603 16.9344 9.19823 17.5518C9.35003 18.3803 9.44463 18.7656 9.66243 19.2612C10.1134 20.2923 10.7052 20.7963 11.5214 20.9654C12.3244 21.1313 13.4937 20.6892 14.2329 19.908C15.0524 19.0428 15.4143 17.9603 15.2801 16.6226C15.2229 16.0472 15.0557 15.4035 14.7807 14.6864C15.7199 14.817 16.6723 14.8368 17.6165 14.7452C19.8242 14.5299 21.0639 13.1576 20.8835 11.423C20.8043 10.6754 20.5205 10.0401 20.0376 9.54136C20.4435 8.79481 20.6052 8.05666 20.504 7.33636C20.3874 6.50686 19.9034 5.81596 19.0982 5.27941C19.0355 4.55176 18.8606 3.97111 18.5504 3.53641C18.306 3.18521 17.9871 2.88689 17.6143 2.66071C17.4955 1.94251 17.2458 1.38076 16.8377 0.98596C16.1612 0.328661 14.9523 -0.0629883 13.8479 0.00841141C12.7996 0.0756111 12.1792 0.197411 10.7162 0.638411C9.75153 0.92926 7.75393 1.41226 4.74323 2.08426H1.44873H1.44983ZM3.32093 11.3568C3.32064 11.4508 3.33978 11.5438 3.37724 11.6307C3.4147 11.7176 3.46975 11.7965 3.53924 11.863C3.60872 11.9296 3.69128 11.9823 3.78218 12.0184C3.87307 12.0544 3.97052 12.0729 4.06893 12.0729C4.16716 12.0726 4.26437 12.0539 4.35501 12.0178C4.44565 11.9816 4.52795 11.9288 4.5972 11.8623C4.66646 11.7958 4.72131 11.7169 4.75864 11.6302C4.79596 11.5435 4.81502 11.4506 4.81473 11.3568L4.81473 3.29491C4.81488 3.20115 4.79567 3.10827 4.75821 3.0216C4.72076 2.93492 4.66578 2.85613 4.59643 2.78973C4.52707 2.72333 4.44469 2.67062 4.354 2.63461C4.2633 2.5986 4.16606 2.58 4.06783 2.57986C3.9696 2.58 3.87236 2.5986 3.78167 2.63461C3.69097 2.67062 3.60859 2.72333 3.53924 2.78973C3.46988 2.85613 3.41491 2.93492 3.37745 3.0216C3.33999 3.10827 3.32079 3.20115 3.32093 3.29491L3.32093 11.3568Z" fill="#767676"/>
</svg>
