<svg width="28" height="28" viewBox="0 0 28 28" fill="none" xmlns="http://www.w3.org/2000/svg">
<path d="M10.6573 24.2356V20.6683C10.6573 19.7576 11.4009 19.0194 12.3183 19.0194H15.6715C16.112 19.0194 16.5344 19.1931 16.8459 19.5023C17.1574 19.8116 17.3324 20.231 17.3324 20.6683V24.2356C17.3296 24.6142 17.4792 24.9782 17.7478 25.2469C18.0165 25.5156 18.3821 25.6667 18.7635 25.6667H21.0512C22.1197 25.6695 23.1453 25.25 23.9018 24.501C24.6583 23.7519 25.0834 22.7349 25.0834 21.6742V11.5114C25.0834 10.6546 24.7008 9.84186 24.0388 9.29215L16.2564 3.12189C14.9027 2.04003 12.963 2.07496 11.6497 3.20485L4.04493 9.29215C3.35161 9.82565 2.93723 10.6408 2.91675 11.5114V21.6638C2.91675 23.8745 4.72203 25.6667 6.94895 25.6667H9.18442C9.97651 25.6667 10.6202 25.0323 10.626 24.246L10.6573 24.2356Z" fill="#45B09E"/>
</svg>
