<svg width="430" height="131" viewBox="0 0 430 131" fill="none" xmlns="http://www.w3.org/2000/svg">
<path d="M157.936 45.024C157.936 48.4373 157.552 51.68 156.784 54.752C155.077 60.7253 151.963 65.9307 147.44 70.368C141.979 75.9147 135.408 79.2853 127.728 80.48C126.021 80.8213 124.187 80.992 122.224 80.992H113.136V71.648C113.477 65.5893 116.421 62.56 121.968 62.56H122.096C126.875 62.56 130.971 60.8533 134.384 57.44C135.323 56.5013 136.091 55.6053 136.688 54.752H121.712C121.285 54.752 120.944 54.7947 120.688 54.88C117.787 55.648 115.141 57.2267 112.752 59.616C110.021 62.176 108.4 65.248 107.888 68.832C107.632 69.856 107.504 70.9227 107.504 72.032C107.504 76.8107 109.253 80.9493 112.752 84.448C116.165 87.8613 120.261 89.568 125.04 89.568H125.168C130.629 89.568 133.573 92.5973 134 98.656V108H124.912C122.949 108 121.115 107.829 119.408 107.488C111.899 106.464 105.328 103.136 99.696 97.504C92.6987 90.5067 89.2 82.016 89.2 72.032C89.2 65.4613 90.6507 59.6587 93.552 54.624C95.088 51.6373 97.136 48.9493 99.696 46.56C102.085 44.0853 104.816 42.0373 107.888 40.416C109.595 39.392 111.429 38.5813 113.392 37.984C115.355 37.3013 117.36 36.7893 119.408 36.448L120.176 36.32H157.04C157.637 38.9653 157.936 41.8667 157.936 45.024ZM216.409 34.912V44.256C215.982 50.3147 212.996 53.344 207.449 53.344H195.417C194.905 53.344 194.564 53.3867 194.393 53.472C191.321 54.24 188.59 55.8187 186.201 58.208C185.177 59.232 184.366 60.2133 183.769 61.152C183.854 61.4933 183.897 61.8347 183.897 62.176C183.897 62.432 183.94 62.7307 184.025 63.072H207.321V72.416C207.321 74.72 206.468 76.7253 204.761 78.432C203.14 80.0533 201.134 80.864 198.745 80.864H184.025V108H174.809C168.75 107.659 165.721 104.715 165.721 99.168V63.2C165.721 61.2373 166.02 59.488 166.617 57.952C166.958 57.0987 167.3 56.288 167.641 55.52C167.982 54.752 168.366 53.984 168.793 53.216C170.5 50.144 172.59 47.456 175.065 45.152L176.217 44C177.412 42.976 178.606 42.0373 179.801 41.184C180.996 40.3307 182.19 39.5627 183.385 38.88C187.14 36.9173 191.065 35.6373 195.161 35.04L196.057 34.912H216.409ZM267.89 40.672V50.016C267.378 55.9893 264.434 58.976 259.058 58.976H258.93C254.151 58.976 250.013 60.7253 246.514 64.224C243.698 67.04 242.034 70.368 241.522 74.208L240.882 79.968V93.792V108H231.922C226.375 107.573 223.431 104.971 223.09 100.192V79.328C223.09 78.9013 223.047 78.4747 222.962 78.048C222.962 77.536 222.962 77.0667 222.962 76.64C222.962 76.128 222.962 75.6587 222.962 75.232C223.047 74.8053 223.09 74.3787 223.09 73.952V35.936H232.306C234.695 35.936 236.701 36.832 238.322 38.624C240.029 40.3307 240.882 42.336 240.882 44.64V45.408C244.637 43.1893 248.733 41.7387 253.17 41.056C254.194 40.8853 255.133 40.7573 255.986 40.672C256.839 40.5867 257.778 40.5867 258.802 40.672H267.89ZM343.561 45.024C343.561 48.4373 343.177 51.68 342.409 54.752C340.702 60.7253 337.588 65.9307 333.065 70.368C327.604 75.9147 321.033 79.2853 313.353 80.48C311.646 80.8213 309.812 80.992 307.849 80.992H298.761V71.648C299.102 65.5893 302.046 62.56 307.593 62.56H307.721C312.5 62.56 316.596 60.8533 320.009 57.44C320.948 56.5013 321.716 55.6053 322.313 54.752H307.337C306.91 54.752 306.569 54.7947 306.313 54.88C303.412 55.648 300.766 57.2267 298.377 59.616C295.646 62.176 294.025 65.248 293.513 68.832C293.257 69.856 293.129 70.9227 293.129 72.032C293.129 76.8107 294.878 80.9493 298.377 84.448C301.79 87.8613 305.886 89.568 310.665 89.568H310.793C316.254 89.568 319.198 92.5973 319.625 98.656V108H310.537C308.574 108 306.74 107.829 305.033 107.488C297.524 106.464 290.953 103.136 285.321 97.504C278.324 90.5067 274.825 82.016 274.825 72.032C274.825 65.4613 276.276 59.6587 279.177 54.624C280.713 51.6373 282.761 48.9493 285.321 46.56C287.71 44.0853 290.441 42.0373 293.513 40.416C295.22 39.392 297.054 38.5813 299.017 37.984C300.98 37.3013 302.985 36.7893 305.033 36.448L305.801 36.32H342.665C343.262 38.9653 343.561 41.8667 343.561 45.024ZM403.954 40.8V26.08C403.954 20.1067 406.898 17.12 412.786 17.12H421.746V71.904V72.032V74.72C421.149 83.5093 417.65 91.104 411.25 97.504C404.338 104.501 395.847 108 385.778 108C375.794 108 367.346 104.501 360.434 97.504C353.437 90.5067 349.938 82.016 349.938 72.032C349.938 62.048 353.437 53.5573 360.434 46.56C367.346 39.5627 375.794 36.064 385.778 36.064C392.605 36.064 398.663 37.6427 403.954 40.8ZM403.442 72.032C403.442 67.0827 401.693 62.944 398.194 59.616C394.866 56.2027 390.727 54.496 385.778 54.496C380.914 54.496 376.818 56.2027 373.49 59.616C369.991 62.944 368.242 67.0827 368.242 72.032C368.242 76.8107 369.991 80.9493 373.49 84.448C376.818 87.8613 380.914 89.568 385.778 89.568C390.727 89.568 394.866 87.8613 398.194 84.448C401.693 80.9493 403.442 76.8107 403.442 72.032Z" fill="white"/>
<path d="M38.1672 15.4571C42.337 30.4449 51.0785 27.9619 53.1608 28.8274C55.2431 29.6929 52.2681 76.1702 49.7829 78.4434C47.2977 80.7166 33.9389 99.6597 28.5454 68.9775C28.5454 68.9775 -11.2034 115.799 48.7249 101.598C48.7249 101.598 77.8514 99.3144 76.761 21.129C85.739 24.2595 86.5814 18.7738 85.8804 15.6396C76.7502 -12.6509 57.5314 12.7982 48.0933 10.829C40.5428 9.25362 38.3299 13.258 38.1672 15.4571Z" fill="white" stroke="white"/>
</svg>
