<svg width="774" height="204" viewBox="0 0 774 204" fill="none" xmlns="http://www.w3.org/2000/svg">
<path d="M56.2938 31.0463C65.0537 52.3668 58.277 41.7556 80.6949 48.0912C103.113 54.4268 84.4153 121.681 84.4153 121.681C84.4153 121.681 64.8208 155.67 51.5117 111.474C51.5117 111.474 1.23185 187.322 86.9143 155.932C86.9143 155.932 129.367 147.471 114.068 32.6314C127.826 35.6647 128.104 27.4462 126.524 22.9579C108.136 -17.0655 84.3177 23.7428 70.0869 22.4986C58.7023 21.5033 56.1479 27.7823 56.2938 31.0463Z" fill="#3B9678"/>
<path d="M184.933 160.4H181.2C170.978 160.4 162.667 158.4 156.267 154.4C149.956 150.4 145.289 145.2 142.267 138.8C139.333 132.311 137.867 125.378 137.867 118C137.867 111.422 138.933 104.844 141.067 98.2667C143.289 91.6889 146.356 85.7333 150.267 80.4C154.267 74.9778 159.022 70.6667 164.533 67.4667C170.133 64.1778 176.311 62.5333 183.067 62.5333C185.111 62.5333 187.244 62.7111 189.467 63.0667C197.467 64.4889 203.2 67.4222 206.667 71.8667C210.222 76.2222 212 81.0667 212 86.4C212 91.5556 210.667 96.6222 208 101.6C205.333 106.578 201.733 110.711 197.2 114C192.667 117.289 187.6 118.933 182 118.933C177.467 118.933 172.711 117.556 167.733 114.8C167.378 114.622 166.978 114.4 166.533 114.133C166.178 113.867 165.778 113.644 165.333 113.467C164.978 113.2 164.622 113.067 164.267 113.067C163.556 113.067 163.2 114.444 163.2 117.2C163.2 122.622 165.244 127.111 169.333 130.667C173.511 134.222 178.711 136 184.933 136C191.067 136 197.244 134.222 203.467 130.667C204.978 129.867 206.444 129.156 207.867 128.533C209.378 127.911 211.111 127.6 213.067 127.6L214.8 127.733C218.089 128.089 220.533 129.067 222.133 130.667C223.733 132.178 224.533 134 224.533 136.133C224.533 139.333 222.889 142.844 219.6 146.667C216.4 150.489 211.822 153.733 205.867 156.4C199.911 159.067 192.933 160.4 184.933 160.4ZM181.733 100.133C182.267 100.133 182.978 99.9111 183.867 99.4667C186.533 98.1333 188.489 96.5778 189.733 94.8C190.978 93.0222 191.6 91.2889 191.6 89.6C191.6 87.9111 191.067 86.4889 190 85.3333C188.933 84.0889 187.378 83.4667 185.333 83.4667C182.311 83.4667 179.022 84.8889 175.467 87.7333C172 90.5778 170.267 92.7556 170.267 94.2667C170.267 94.9778 170.756 95.3778 171.733 95.4667C174.756 95.7333 177.156 96.7556 178.933 98.5333C179.911 99.6 180.844 100.133 181.733 100.133ZM264.972 200.667C261.061 200.667 257.906 198.8 255.506 195.067C251.328 188.667 248.395 177.644 246.706 162C245.639 152.4 244.928 144.4 244.572 138C244.395 136.222 244.039 135.156 243.506 134.8C242.972 134.356 242.128 134.133 240.972 134.133H240.306C238.795 134.133 236.661 133.6 233.906 132.533C231.95 131.644 230.35 130.267 229.106 128.4C227.95 126.533 227.372 124.622 227.372 122.667C227.372 119.822 228.306 117.511 230.172 115.733C232.75 113.422 236.261 112 240.706 111.467L242.039 111.2C243.284 110.844 244.261 109.156 244.972 106.133C245.772 103.111 246.572 99.2444 247.372 94.5333C248.35 88.8444 249.639 82.7111 251.239 76.1333C254.884 60.4889 261.195 49.6 270.172 43.4667C273.639 41.2444 277.195 40.1333 280.839 40.1333C283.95 40.1333 286.884 41.1111 289.639 43.0667C292.395 44.9333 294.617 48 296.306 52.2667C298.084 56.5333 298.972 62.2222 298.972 69.3333C298.972 71.5556 298.884 73.9111 298.706 76.4C298.439 79.2444 297.728 81.4222 296.572 82.9333C295.417 84.4444 294.128 85.2 292.706 85.2C291.195 85.2 289.817 84.3556 288.572 82.6667C286.706 80.2667 285.772 76.6667 285.772 71.8667C285.772 64.8444 284.617 60.3111 282.306 58.2667C280.617 58.8 279.15 60.3556 277.906 62.9333C276.661 65.5111 275.639 68.3556 274.839 71.4667C274.039 74.4889 273.506 76.9333 273.239 78.8C271.106 90.7111 270.039 98.5333 270.039 102.267C270.039 103.778 270.217 104.8 270.572 105.333C270.928 105.867 271.506 106.133 272.306 106.133C273.106 106.133 274.839 105.867 277.506 105.333L283.372 104.4C288.084 103.333 291.95 102.8 294.972 102.8C298.439 102.8 301.328 103.911 303.639 106.133C305.417 108 306.306 110 306.306 112.133C306.306 114.178 305.639 116.089 304.306 117.867C302.972 119.644 301.239 120.933 299.106 121.733C290.928 124.311 284.572 125.778 280.039 126.133C276.395 126.4 273.772 127.022 272.172 128C270.572 128.978 269.772 131.422 269.772 135.333C269.772 140.578 270.884 149.778 273.106 162.933L276.039 183.467C276.306 185.067 276.439 186.533 276.439 187.867C276.439 191.511 275.684 194.311 274.172 196.267C271.861 199.2 268.795 200.667 264.972 200.667ZM330.275 159.867C323.075 159.867 318.631 156.889 316.942 150.933C315.786 147.022 315.208 142.622 315.208 137.733C315.208 133.822 315.342 129.822 315.608 125.733C315.875 122 316.008 118.622 316.008 115.6C316.008 112.4 315.742 109.733 315.208 107.6C313.964 103.067 313.342 98.4444 313.342 93.7333V87.6C313.342 85.2 314.142 83.1111 315.742 81.3333C317.431 79.5556 319.475 78.6667 321.875 78.6667C323.831 78.6667 325.919 79.4667 328.142 81.0667C330.364 82.5778 331.919 84.6222 332.808 87.2C333.164 88.2667 333.564 88.8 334.008 88.8C334.719 88.8 336.275 87.8667 338.675 86C344.631 81.4667 350.408 78.2222 356.008 76.2667C361.608 74.3111 366.719 73.3333 371.342 73.3333C377.031 73.3333 381.608 74.5333 385.075 76.9333C388.631 79.2444 390.408 82.0889 390.408 85.4667C390.408 86.7111 390.142 88 389.608 89.3333C388.631 91.5556 387.475 93.0667 386.142 93.8667C384.808 94.6667 383.342 95.0667 381.742 95.0667C380.408 95.0667 378.942 94.9333 377.342 94.6667C375.742 94.3111 374.097 94.1333 372.408 94.1333C370.897 94.1333 369.342 94.4 367.742 94.9333C359.031 98.4 352.675 102.8 348.675 108.133C344.764 113.467 342.231 119.111 341.075 125.067C340.008 130.933 339.431 136.489 339.342 141.733C339.164 145.2 338.853 148.311 338.408 151.067C338.053 153.822 337.253 155.956 336.008 157.467C334.853 159.067 332.942 159.867 330.275 159.867ZM440.207 160.4H436.473C426.251 160.4 417.94 158.4 411.54 154.4C405.229 150.4 400.562 145.2 397.54 138.8C394.607 132.311 393.14 125.378 393.14 118C393.14 111.422 394.207 104.844 396.34 98.2667C398.562 91.6889 401.629 85.7333 405.54 80.4C409.54 74.9778 414.296 70.6667 419.807 67.4667C425.407 64.1778 431.585 62.5333 438.34 62.5333C440.385 62.5333 442.518 62.7111 444.74 63.0667C452.74 64.4889 458.473 67.4222 461.94 71.8667C465.496 76.2222 467.273 81.0667 467.273 86.4C467.273 91.5556 465.94 96.6222 463.273 101.6C460.607 106.578 457.007 110.711 452.473 114C447.94 117.289 442.873 118.933 437.273 118.933C432.74 118.933 427.985 117.556 423.007 114.8C422.651 114.622 422.251 114.4 421.807 114.133C421.451 113.867 421.051 113.644 420.607 113.467C420.251 113.2 419.896 113.067 419.54 113.067C418.829 113.067 418.473 114.444 418.473 117.2C418.473 122.622 420.518 127.111 424.607 130.667C428.785 134.222 433.985 136 440.207 136C446.34 136 452.518 134.222 458.74 130.667C460.251 129.867 461.718 129.156 463.14 128.533C464.651 127.911 466.385 127.6 468.34 127.6L470.073 127.733C473.362 128.089 475.807 129.067 477.407 130.667C479.007 132.178 479.807 134 479.807 136.133C479.807 139.333 478.162 142.844 474.873 146.667C471.673 150.489 467.096 153.733 461.14 156.4C455.185 159.067 448.207 160.4 440.207 160.4ZM437.007 100.133C437.54 100.133 438.251 99.9111 439.14 99.4667C441.807 98.1333 443.762 96.5778 445.007 94.8C446.251 93.0222 446.873 91.2889 446.873 89.6C446.873 87.9111 446.34 86.4889 445.273 85.3333C444.207 84.0889 442.651 83.4667 440.607 83.4667C437.585 83.4667 434.296 84.8889 430.74 87.7333C427.273 90.5778 425.54 92.7556 425.54 94.2667C425.54 94.9778 426.029 95.3778 427.007 95.4667C430.029 95.7333 432.429 96.7556 434.207 98.5333C435.185 99.6 436.118 100.133 437.007 100.133ZM563.579 160.267C560.646 160.267 557.979 158.978 555.579 156.4C553.535 153.733 552.113 150.889 551.312 147.867C550.601 144.756 550.112 141.422 549.846 137.867C549.579 134.222 549.001 130.311 548.112 126.133C546.957 126.311 545.757 127.6 544.512 130C543.446 132.756 540.424 137.2 535.446 143.333C527.09 152.844 518.69 157.6 510.246 157.6C502.957 157.6 496.868 154.489 491.979 148.267C487.09 141.956 484.646 134.578 484.646 126.133C484.646 120.8 485.801 115.378 488.112 109.867C493.179 97.7778 503.712 88.3556 519.713 81.6C525.668 79.2889 530.69 78.1333 534.779 78.1333C535.313 78.1333 535.801 78.1778 536.246 78.2667H537.446C538.601 78.2667 539.49 78 540.112 77.4667C540.735 76.8444 541.224 75.5111 541.579 73.4667C542.024 71.3333 542.513 68.0444 543.046 63.6C543.579 59.1556 544.424 53.1556 545.579 45.6C546.29 41.4222 547.668 38.3556 549.713 36.4C551.846 34.3556 554.201 33.3333 556.779 33.3333C559.09 33.3333 561.313 34.0889 563.446 35.6C567.001 38.6222 569.179 45.2444 569.979 55.4667C570.601 63.8222 570.912 73.2889 570.912 83.8667V91.0667C570.912 100.578 571.046 110.089 571.312 119.6C571.668 129.111 572.468 138 573.712 146.267C573.89 147.244 573.979 148.178 573.979 149.067C573.979 152.711 572.913 155.467 570.779 157.333C568.646 159.289 566.246 160.267 563.579 160.267ZM511.046 135.867C515.668 135.867 521.046 130.267 527.179 119.067C529.401 114.978 531.401 110.889 533.179 106.8C534.957 102.622 535.846 99.5111 535.846 97.4667C535.846 96.2222 535.401 95.6 534.513 95.6L533.579 95.7333C526.912 98.4 521.535 101.644 517.446 105.467C513.446 109.289 510.513 113.244 508.646 117.333C506.868 121.422 505.979 125.022 505.979 128.133C505.979 130.444 506.424 132.311 507.312 133.733C508.201 135.156 509.446 135.867 511.046 135.867Z" fill="#3B9678"/>
</svg>
