<svg width="87" height="24" viewBox="0 0 87 24" fill="none" xmlns="http://www.w3.org/2000/svg">
<path d="M7.616 1.24V18.104C7.616 19.64 7.22133 20.8027 6.432 21.592C5.664 22.3813 4.256 23.096 2.208 23.736L0.32 20.184C1.472 19.7573 2.18667 19.3413 2.464 18.936C2.74133 18.5307 2.88 17.9333 2.88 17.144V1.24H7.616ZM19.2785 7.032C21.7105 7.032 23.5132 7.832 24.6865 9.432C25.8598 11.032 26.4465 12.9307 26.4465 15.128V16.664H16.3345C16.5478 17.5387 16.9852 18.2213 17.6465 18.712C18.3292 19.2027 19.1932 19.448 20.2385 19.448C20.9425 19.448 21.5932 19.3733 22.1905 19.224C22.8092 19.0533 23.4705 18.7973 24.1745 18.456L25.5505 21.784C24.7612 22.3813 23.8012 22.7973 22.6705 23.032C21.5398 23.2667 20.6438 23.384 19.9825 23.384C17.3585 23.384 15.2465 22.68 13.6465 21.272C12.0678 19.8427 11.2785 17.8373 11.2785 15.256C11.2785 12.7387 12.0145 10.744 13.4865 9.272C14.9585 7.77867 16.8892 7.032 19.2785 7.032ZM19.1505 10.936C18.4252 10.936 17.8065 11.1707 17.2945 11.64C16.7825 12.1093 16.4518 12.7707 16.3025 13.624H21.9665C21.8172 12.8133 21.5078 12.1627 21.0385 11.672C20.5692 11.1813 19.9398 10.936 19.1505 10.936ZM36.9378 0.535999C37.5138 0.535999 38.1538 0.653332 38.8578 0.887999C39.5618 1.10133 40.0844 1.35733 40.4258 1.656L39.0818 4.984C38.7404 4.83467 38.3991 4.71733 38.0578 4.632C37.7378 4.54667 37.4498 4.504 37.1938 4.504C36.4684 4.504 35.9351 4.73867 35.5938 5.208C35.2524 5.67733 35.0818 6.296 35.0818 7.064V8.056H38.4738L39.5298 11.736H35.0818V23H30.3778V11.736H27.9138V8.056H30.3778V6.456C30.3778 4.57867 30.9858 3.128 32.2018 2.104C33.4178 1.05867 34.9964 0.535999 36.9378 0.535999ZM51.2505 7.48L52.2105 11.256C51.4852 11.256 50.6745 11.4267 49.7785 11.768C48.8825 12.1093 48.0292 12.632 47.2185 13.336V23H42.5145V7.512H44.9145L46.3225 9.56C46.9625 9.02667 47.7305 8.54667 48.6265 8.12C49.5225 7.69333 50.3972 7.48 51.2505 7.48ZM61.6223 7.032C64.0543 7.032 65.8569 7.832 67.0303 9.432C68.2036 11.032 68.7903 12.9307 68.7903 15.128V16.664H58.6783C58.8916 17.5387 59.3289 18.2213 59.9903 18.712C60.6729 19.2027 61.5369 19.448 62.5823 19.448C63.2863 19.448 63.9369 19.3733 64.5343 19.224C65.1529 19.0533 65.8143 18.7973 66.5183 18.456L67.8943 21.784C67.1049 22.3813 66.1449 22.7973 65.0143 23.032C63.8836 23.2667 62.9876 23.384 62.3263 23.384C59.7023 23.384 57.5903 22.68 55.9903 21.272C54.4116 19.8427 53.6223 17.8373 53.6223 15.256C53.6223 12.7387 54.3583 10.744 55.8303 9.272C57.3023 7.77867 59.2329 7.032 61.6223 7.032ZM61.4943 10.936C60.7689 10.936 60.1503 11.1707 59.6383 11.64C59.1263 12.1093 58.7956 12.7707 58.6463 13.624H64.3103C64.1609 12.8133 63.8516 12.1627 63.3823 11.672C62.9129 11.1813 62.2836 10.936 61.4943 10.936ZM79.5695 19.416C79.9748 19.416 80.4228 19.3307 80.9135 19.16C81.4042 18.9893 81.8522 18.776 82.2575 18.52V11.928C81.8522 11.608 81.3935 11.352 80.8815 11.16C80.3695 10.9467 79.8788 10.84 79.4095 10.84C78.1508 10.84 77.2655 11.3093 76.7535 12.248C76.2628 13.1867 76.0175 14.1467 76.0175 15.128C76.0175 16.2587 76.2735 17.2613 76.7855 18.136C77.2975 18.9893 78.2255 19.416 79.5695 19.416ZM86.9935 0.407999V23H84.5615L83.4415 21.464C82.8228 21.9973 82.0548 22.456 81.1375 22.84C80.2415 23.2027 79.3028 23.384 78.3215 23.384C75.9748 23.384 74.1935 22.6053 72.9775 21.048C71.7615 19.4693 71.1535 17.5173 71.1535 15.192C71.1535 12.8453 71.7828 10.8827 73.0415 9.304C74.3215 7.704 76.1668 6.904 78.5775 6.904C79.1108 6.904 79.7082 6.98933 80.3695 7.16C81.0308 7.33067 81.6602 7.576 82.2575 7.896V0.759998L86.9935 0.407999Z" fill="#45B09E"/>
</svg>
