<svg xmlns="http://www.w3.org/2000/svg" xmlns:xlink="http://www.w3.org/1999/xlink" version="1.1" viewBox="0 0 33.9999 42.499874999999996" x="0px" y="0px"><g data-name="Layer 1"><path transform="matrix(1,0,0,-1,0,33.9999)" d="M4.9462 27.8385H27.5275C27.8036 27.8385 28.0276 27.6146 28.0276 27.3385 28.0276 27.0624 27.8036 26.8384 27.5275 26.8384 26.7165 26.8384 25.9798 26.5073 25.4466 25.9733 24.9134 25.439 24.5815 24.7022 24.5815 23.8924 24.5815 23.0825 24.9134 22.3458 25.4472 21.812L25.4707 21.7868C26.0016 21.2675 26.7284 20.9463 27.5275 20.9463H29.6396C29.9157 20.9463 30.1397 20.7224 30.1397 20.4463 30.1397 20.1702 29.9157 19.9463 29.6396 19.9463 28.8292 19.9463 28.0922 19.6149 27.5581 19.0814 27.0247 18.5474 26.6933 17.8104 26.6933 16.9999 26.6933 16.1904 27.0252 15.4536 27.5587 14.9193 28.0922 14.3855 28.8292 14.0542 29.6396 14.0542H32.4998C32.7759 14.0542 32.9998 13.8302 32.9998 13.5541 32.9998 13.278 32.7759 13.0541 32.4998 13.0541 31.6902 13.0541 30.9532 12.7222 30.4194 12.1884L30.3945 12.1652C29.8749 11.6331 29.5537 10.906 29.5537 10.1078 29.5537 9.2968 29.8848 8.5601 30.4189 8.0269 30.9532 7.4937 31.6899 7.1617 32.4998 7.1617 32.7759 7.1617 32.9998 6.9378 32.9998 6.6617 32.9998 6.3856 32.7759 6.1617 32.4998 6.1617H9.9184C8.833 6.1617 7.8457 6.6059 7.1311 7.3205L7.1039 7.35C6.4049 8.0631 5.9723 9.0388 5.9723 10.1078 5.9723 11.0976 6.3434 12.0067 6.9525 12.7023 7.0617 12.8268 7.1782 12.9441 7.3018 13.0541H7.0583C5.9882 13.0541 5.0139 13.4867 4.3016 14.1846L4.2707 14.2129C3.5561 14.9275 3.1119 15.9146 3.1119 16.9999 3.1119 18.0802 3.5524 19.0627 4.2718 19.7864 4.3373 19.8522 4.4045 19.9148 4.4734 19.9749 3.5773 20.0835 2.77 20.4962 2.1594 21.1056 1.4443 21.8197 1.0001 22.8067 1.0001 23.8924 1.0001 24.978 1.4443 25.9651 2.1589 26.6797L2.1883 26.7069C2.9015 27.4059 3.8772 27.8385 4.9462 27.8385ZM24.9106 26.8384H4.9462C4.1471 26.8384 3.4203 26.5173 2.8894 25.998L2.8658 25.9727C2.3321 25.439 2.0001 24.7022 2.0001 23.8924 2.0001 23.0825 2.3321 22.3458 2.8653 21.8106 3.3985 21.2774 4.1352 20.9463 4.9462 20.9463H7.0583 24.9106C24.8627 20.9889 24.8156 21.0328 24.7697 21.0779L24.7402 21.1051C24.137 21.7083 23.7266 22.5054 23.6132 23.3921H13.1091C12.833 23.3921 12.6091 23.616 12.6091 23.8921 12.6091 24.1682 12.833 24.3921 13.1091 24.3921H23.6129C23.726 25.2791 24.137 26.0765 24.7408 26.6791 24.7963 26.7335 24.8525 26.7868 24.9106 26.8384ZM27.0224 19.9463H7.0583C6.2478 19.9463 5.5108 19.6149 4.9768 19.0814 4.4433 18.5474 4.1119 17.8104 4.1119 16.9999 4.1119 16.1904 4.4439 15.4536 4.9776 14.9199L5.0009 14.8949C5.5329 14.3753 6.26 14.0542 7.0583 14.0542H9.4184V16.9999C9.4184 17.276 9.6423 17.5 9.9184 17.5H11.9563 13.8634 25.725C25.8384 18.3858 26.2488 19.1823 26.8586 19.7918 26.9147 19.8476 26.968 19.8978 27.0224 19.9463ZM14.3634 14.0542H27.0224C26.9646 14.1055 26.9084 14.1585 26.8526 14.2135 26.2488 14.8161 25.8384 15.6132 25.725 16.4999H14.3634ZM29.6396 13.0541H14.3634V7.9322C14.3634 7.6561 14.1395 7.4322 13.8634 7.4322 13.7254 7.4322 13.6003 7.488 13.5057 7.583L11.8911 9.1976 10.2719 7.5784C10.0769 7.3834 9.76 7.3834 9.5649 7.5784 9.4674 7.6759 9.4187 7.8041 9.4187 7.9319L9.4184 13.0133C8.7406 12.8968 8.1397 12.5453 7.7026 12.0464 7.2488 11.5282 6.9724 10.849 6.9724 10.1078 6.9724 9.3087 7.2935 8.5819 7.8129 8.051L7.8381 8.0274C8.3718 7.4937 9.1086 7.1617 9.9184 7.1617H29.8809C29.823 7.213 29.7669 7.266 29.713 7.321 29.1095 7.9257 28.6994 8.7225 28.5857 9.6077H18.0814C17.8053 9.6077 17.5813 9.8317 17.5813 10.1078 17.5813 10.3839 17.8053 10.6078 18.0814 10.6078H28.5854C28.6971 11.4795 29.0965 12.2649 29.6841 12.8645L29.7125 12.8954C29.7669 12.9498 29.823 13.0028 29.8809 13.0541Z"/></g><text x="0" y="48.9999" fill="#000000" font-size="5px" font-weight="bold" font-family="'Helvetica Neue', Helvetica, Arial-Unicode, Arial, Sans-serif">Created by Alvida</text><text x="0" y="53.9999" fill="#000000" font-size="5px" font-weight="bold" font-family="'Helvetica Neue', Helvetica, Arial-Unicode, Arial, Sans-serif">from the Noun Project</text></svg>