<svg width="79" height="60" viewBox="0 0 79 60" fill="none" xmlns="http://www.w3.org/2000/svg">
<path d="M78.3519 35.0462C78.3519 35.0345 78.3441 35.0267 78.3441 35.0189C78.3441 35.0072 78.348 34.9954 78.3441 34.9798C78.3363 34.9329 78.3207 34.8939 78.305 34.8509C78.2972 34.8314 78.2933 34.8118 78.2855 34.7923C78.2504 34.7259 78.2074 34.6634 78.1527 34.6126C78.141 34.6009 78.1293 34.597 78.1175 34.5853C78.0707 34.5462 78.0199 34.515 77.9652 34.4915C77.9418 34.4798 77.9144 34.4759 77.891 34.4681C77.8597 34.4603 77.8285 34.4447 77.7933 34.4408L68.141 33.3119L69.102 32.8822C69.3363 32.7767 69.4848 32.5423 69.477 32.2884L69.1801 21.2184C69.1801 21.2067 69.1723 21.1989 69.1723 21.1911C69.1723 21.1793 69.1762 21.1676 69.1723 21.152C69.1645 21.1051 69.1488 21.0622 69.1332 21.0192C69.1254 20.9997 69.1254 20.9801 69.1176 20.9606C69.0863 20.8903 69.0395 20.8278 68.9848 20.777C68.9731 20.7653 68.9574 20.7575 68.9457 20.7497C68.8988 20.7145 68.852 20.6794 68.7973 20.6559C68.7738 20.6442 68.7465 20.6403 68.7192 20.6325C68.6879 20.6247 68.6606 20.609 68.6254 20.6051L62.9457 19.8747L71.5199 18.1677C71.6801 18.1364 71.8207 18.0466 71.9144 17.9138C73.1996 16.0974 73.18 13.156 72.7308 11.0076C72.3129 9.00756 71.5042 7.47235 70.5667 6.86305C70.5589 6.85524 70.5472 6.84743 70.5394 6.84352C70.5316 6.83962 70.5238 6.8279 70.5121 6.82399C70.4925 6.81227 70.473 6.81227 70.4535 6.80446C70.4222 6.78884 70.391 6.76931 70.3558 6.75759L46.3788 0.0231881C46.2968 -0.000249857 46.2108 -0.00415611 46.1249 0.00365689L5.23389 5.25756C5.20264 5.26146 5.1753 5.27709 5.14405 5.2849C5.11671 5.29271 5.08936 5.29662 5.06202 5.30834C5.00733 5.33177 4.96436 5.36302 4.91749 5.39818C4.90186 5.4099 4.88624 5.41771 4.87452 5.42943C4.81983 5.48021 4.77686 5.54271 4.74561 5.61302C4.73779 5.63255 4.73389 5.65209 4.72608 5.67162C4.71045 5.71459 4.69092 5.75755 4.68701 5.80052C4.68311 5.81224 4.69092 5.82396 4.68701 5.83959C4.68701 5.85131 4.6792 5.85912 4.6792 5.86693L4.38232 16.9369C4.37451 17.1947 4.52294 17.4291 4.75732 17.5307L10.5503 20.1205L3.50342 22.0971C3.46827 22.1088 3.43701 22.1283 3.40576 22.144C3.38623 22.1518 3.3667 22.1557 3.34717 22.1635C3.33936 22.1674 3.33155 22.1791 3.31983 22.183C3.31201 22.1908 3.3003 22.1947 3.29248 22.2026C2.35107 22.808 1.54638 24.347 1.12838 26.347C0.679164 28.4954 0.659634 31.4369 1.94479 33.2533C2.03854 33.3861 2.17917 33.4759 2.33932 33.5072L9.75732 34.9838L2.89792 36.9955C2.86277 37.0072 2.83152 37.0267 2.80027 37.0423C2.78074 37.0501 2.7612 37.0541 2.74167 37.0658C2.73386 37.0697 2.72605 37.0814 2.71433 37.0853C2.70652 37.0931 2.6948 37.097 2.68699 37.1048C1.63229 37.8001 0.733885 39.5579 0.284685 41.8431C-0.199695 44.304 -0.187974 47.6595 1.29639 49.7064C1.39014 49.8392 1.53467 49.9291 1.69092 49.9564L53.6089 59.6908C53.648 59.6986 53.687 59.7026 53.7261 59.7026C53.8159 59.7026 53.9058 59.683 53.9917 59.644L78.4647 48.374C78.6952 48.2685 78.8436 48.0302 78.8319 47.7763L78.3475 35.0423L78.3519 35.0462ZM77.4574 44.8704L55.7894 55.0584C55.598 54.9295 55.3011 54.4647 55.1019 53.5037C54.6292 51.2342 55.0628 48.3357 55.9417 47.8279L77.2307 38.8631L77.4612 44.8709L77.4574 44.8704ZM47.8594 40.9876C47.4922 40.8275 47.0352 40.0736 46.7461 38.6126C46.1406 35.5345 46.6641 31.1243 48.1367 30.3392L67.9377 22.1673L67.9728 23.4485L49.0898 31.1516C49.0742 31.1594 49.0586 31.1672 49.043 31.1712C47.5469 31.9485 47.3047 35.1868 47.7032 37.222C48.0469 38.9681 48.754 39.3939 49.2852 39.4447C49.3008 39.4486 49.3203 39.4486 49.3359 39.4486C49.4141 39.4486 49.4922 39.4329 49.5664 39.3978L68.1714 30.9056L68.1988 31.8978L47.8594 40.9876ZM68.1364 29.7026L49.3084 38.3003C49.1756 38.1792 48.9451 37.812 48.7889 37.0151C48.406 35.0659 48.7889 32.5971 49.531 32.1713L68 24.6361L68.1368 29.7064L68.1364 29.7026ZM66.0973 21.5581L47.7733 29.1206L30.4373 26.3511L59.0463 20.6558L66.0971 21.5621L66.0973 21.5581ZM71.484 11.2651C71.9527 13.5112 71.7613 15.7143 71.0074 16.9799L27.6594 25.6127C27.9485 25.0698 28.1829 24.3744 28.3508 23.515C28.8665 20.8978 28.7024 16.8705 27.3391 14.8588L70.0111 8.03852C70.5971 8.53461 71.1752 9.78072 71.4838 11.269L71.484 11.2651ZM46.156 1.27682L67.23 7.19482L26.078 13.7729L7.75398 6.21042L46.152 1.27682H46.156ZM5.85498 9.28852L24.324 16.8237C25.0701 17.2495 25.4529 19.7182 25.0662 21.6675C24.9099 22.4644 24.6795 22.8316 24.5466 22.9527L5.71864 14.355L5.85536 9.28472L5.85498 9.28852ZM5.68701 15.5619L24.292 24.0541C24.3623 24.0854 24.4444 24.1049 24.5225 24.1049C24.5381 24.1049 24.5576 24.1049 24.5733 24.101C25.1045 24.0502 25.8116 23.6283 26.1553 21.8783C26.5537 19.8431 26.3115 16.6049 24.8155 15.8275C24.7998 15.8197 24.7842 15.8119 24.7686 15.808L5.88559 8.10487L5.92074 6.82367L25.7217 14.9956C27.1944 15.7768 27.7139 20.1909 27.1123 23.269C26.8272 24.7182 26.3741 25.4721 26.0068 25.6401L25.9873 25.6362L5.66331 16.5503L5.69066 15.5581L5.68701 15.5619ZM12.3589 20.933L21.1597 24.8666L6.62871 22.5424L12.3631 20.933H12.3589ZM2.37061 26.6127C2.6792 25.1244 3.25733 23.8783 3.84331 23.3822L25.6203 26.8627L26.1281 27.0893C26.2102 27.1244 26.3 27.144 26.3859 27.144C26.425 27.144 26.468 27.1401 26.5109 27.1322L26.8664 27.0619L46.5144 30.2025C45.155 32.2142 44.9871 36.2416 45.5027 38.8587C45.6707 39.7181 45.905 40.4134 46.1941 40.9564L2.84611 32.3236C2.0883 31.058 1.9008 28.8548 2.36955 26.6088L2.37061 26.6127ZM12.4406 35.5268L47.3466 42.476C47.3857 42.4838 47.4286 42.4877 47.4716 42.4877C47.5615 42.4877 47.6474 42.4682 47.7294 42.4331L65.8774 34.3198L75.2758 35.4214L53.9278 44.5152L6.02182 37.4097L12.4398 35.5308L12.4406 35.5268ZM1.53061 42.0971C1.88217 40.308 2.54621 38.8549 3.24941 38.2768L52.6444 45.6049C51.035 47.8627 50.8827 52.5854 51.5194 55.6359C51.7421 56.714 52.0546 57.5617 52.4413 58.1945L2.18729 48.7726C1.26932 47.3117 1.01106 44.7338 1.53061 42.0971ZM54.1716 58.1791C53.7341 58.0268 53.1482 57.2377 52.7614 55.3783C52.0192 51.8119 52.5856 46.6713 54.3044 45.7338L77.1244 36.015L77.1869 37.6791L55.4879 46.8197L55.441 46.8432C53.7887 47.726 53.5504 51.4799 54.0191 53.7338C54.4254 55.6869 55.2105 56.1557 55.7964 56.2026C55.8121 56.2026 55.8277 56.2065 55.8394 56.2065C55.9214 56.2065 55.9996 56.1869 56.0738 56.1518L77.5038 46.0778L77.5546 47.4137L54.1716 58.1837L54.1716 58.1791Z" fill="#888888"/>
<path d="M78.3519 35.0462C78.3519 35.0345 78.3441 35.0267 78.3441 35.0189C78.3441 35.0072 78.348 34.9954 78.3441 34.9798C78.3363 34.9329 78.3207 34.8939 78.305 34.8509C78.2972 34.8314 78.2933 34.8118 78.2855 34.7923C78.2504 34.7259 78.2074 34.6634 78.1527 34.6126C78.141 34.6009 78.1293 34.597 78.1175 34.5853C78.0707 34.5462 78.0199 34.515 77.9652 34.4915C77.9418 34.4798 77.9144 34.4759 77.891 34.4681C77.8597 34.4603 77.8285 34.4447 77.7933 34.4408L68.141 33.3119L69.102 32.8822C69.3363 32.7767 69.4848 32.5423 69.477 32.2884L69.1801 21.2184C69.1801 21.2067 69.1723 21.1989 69.1723 21.1911C69.1723 21.1793 69.1762 21.1676 69.1723 21.152C69.1645 21.1051 69.1488 21.0622 69.1332 21.0192C69.1254 20.9997 69.1254 20.9801 69.1176 20.9606C69.0863 20.8903 69.0395 20.8278 68.9848 20.777C68.9731 20.7653 68.9574 20.7575 68.9457 20.7497C68.8988 20.7145 68.852 20.6794 68.7973 20.6559C68.7738 20.6442 68.7465 20.6403 68.7192 20.6325C68.6879 20.6247 68.6606 20.609 68.6254 20.6051L62.9457 19.8747L71.5199 18.1677C71.6801 18.1364 71.8207 18.0466 71.9144 17.9138C73.1996 16.0974 73.18 13.156 72.7308 11.0076C72.3129 9.00756 71.5042 7.47235 70.5667 6.86305C70.5589 6.85524 70.5472 6.84743 70.5394 6.84352C70.5316 6.83962 70.5238 6.8279 70.5121 6.82399C70.4925 6.81227 70.473 6.81227 70.4535 6.80446C70.4222 6.78884 70.391 6.76931 70.3558 6.75759L46.3788 0.0231881C46.2968 -0.000249857 46.2108 -0.00415611 46.1249 0.00365689L5.23389 5.25756C5.20264 5.26146 5.1753 5.27709 5.14405 5.2849C5.11671 5.29271 5.08936 5.29662 5.06202 5.30834C5.00733 5.33177 4.96436 5.36302 4.91749 5.39818C4.90186 5.4099 4.88624 5.41771 4.87452 5.42943C4.81983 5.48021 4.77686 5.54271 4.74561 5.61302C4.73779 5.63255 4.73389 5.65209 4.72608 5.67162C4.71045 5.71459 4.69092 5.75755 4.68701 5.80052C4.68311 5.81224 4.69092 5.82396 4.68701 5.83959C4.68701 5.85131 4.6792 5.85912 4.6792 5.86693L4.38232 16.9369C4.37451 17.1947 4.52294 17.4291 4.75732 17.5307L10.5503 20.1205L3.50342 22.0971C3.46827 22.1088 3.43701 22.1283 3.40576 22.144C3.38623 22.1518 3.3667 22.1557 3.34717 22.1635C3.33936 22.1674 3.33155 22.1791 3.31983 22.183C3.31201 22.1908 3.3003 22.1947 3.29248 22.2026C2.35107 22.808 1.54638 24.347 1.12838 26.347C0.679164 28.4954 0.659634 31.4369 1.94479 33.2533C2.03854 33.3861 2.17917 33.4759 2.33932 33.5072L9.75732 34.9838L2.89792 36.9955C2.86277 37.0072 2.83152 37.0267 2.80027 37.0423C2.78074 37.0501 2.7612 37.0541 2.74167 37.0658C2.73386 37.0697 2.72605 37.0814 2.71433 37.0853C2.70652 37.0931 2.6948 37.097 2.68699 37.1048C1.63229 37.8001 0.733885 39.5579 0.284685 41.8431C-0.199695 44.304 -0.187974 47.6595 1.29639 49.7064C1.39014 49.8392 1.53467 49.9291 1.69092 49.9564L53.6089 59.6908C53.648 59.6986 53.687 59.7026 53.7261 59.7026C53.8159 59.7026 53.9058 59.683 53.9917 59.644L78.4647 48.374C78.6952 48.2685 78.8436 48.0302 78.8319 47.7763L78.3475 35.0423L78.3519 35.0462ZM77.4574 44.8704L55.7894 55.0584C55.598 54.9295 55.3011 54.4647 55.1019 53.5037C54.6292 51.2342 55.0628 48.3357 55.9417 47.8279L77.2307 38.8631L77.4612 44.8709L77.4574 44.8704ZM47.8594 40.9876C47.4922 40.8275 47.0352 40.0736 46.7461 38.6126C46.1406 35.5345 46.6641 31.1243 48.1367 30.3392L67.9377 22.1673L67.9728 23.4485L49.0898 31.1516C49.0742 31.1594 49.0586 31.1672 49.043 31.1712C47.5469 31.9485 47.3047 35.1868 47.7032 37.222C48.0469 38.9681 48.754 39.3939 49.2852 39.4447C49.3008 39.4486 49.3203 39.4486 49.3359 39.4486C49.4141 39.4486 49.4922 39.4329 49.5664 39.3978L68.1714 30.9056L68.1988 31.8978L47.8594 40.9876ZM68.1364 29.7026L49.3084 38.3003C49.1756 38.1792 48.9451 37.812 48.7889 37.0151C48.406 35.0659 48.7889 32.5971 49.531 32.1713L68 24.6361L68.1368 29.7064L68.1364 29.7026ZM66.0973 21.5581L47.7733 29.1206L30.4373 26.3511L59.0463 20.6558L66.0971 21.5621L66.0973 21.5581ZM71.484 11.2651C71.9527 13.5112 71.7613 15.7143 71.0074 16.9799L27.6594 25.6127C27.9485 25.0698 28.1829 24.3744 28.3508 23.515C28.8665 20.8978 28.7024 16.8705 27.3391 14.8588L70.0111 8.03852C70.5971 8.53461 71.1752 9.78072 71.4838 11.269L71.484 11.2651ZM46.156 1.27682L67.23 7.19482L26.078 13.7729L7.75398 6.21042L46.152 1.27682H46.156ZM5.85498 9.28852L24.324 16.8237C25.0701 17.2495 25.4529 19.7182 25.0662 21.6675C24.9099 22.4644 24.6795 22.8316 24.5466 22.9527L5.71864 14.355L5.85536 9.28472L5.85498 9.28852ZM5.68701 15.5619L24.292 24.0541C24.3623 24.0854 24.4444 24.1049 24.5225 24.1049C24.5381 24.1049 24.5576 24.1049 24.5733 24.101C25.1045 24.0502 25.8116 23.6283 26.1553 21.8783C26.5537 19.8431 26.3115 16.6049 24.8155 15.8275C24.7998 15.8197 24.7842 15.8119 24.7686 15.808L5.88559 8.10487L5.92074 6.82367L25.7217 14.9956C27.1944 15.7768 27.7139 20.1909 27.1123 23.269C26.8272 24.7182 26.3741 25.4721 26.0068 25.6401L25.9873 25.6362L5.66331 16.5503L5.69066 15.5581L5.68701 15.5619ZM12.3589 20.933L21.1597 24.8666L6.62871 22.5424L12.3631 20.933H12.3589ZM2.37061 26.6127C2.6792 25.1244 3.25733 23.8783 3.84331 23.3822L25.6203 26.8627L26.1281 27.0893C26.2102 27.1244 26.3 27.144 26.3859 27.144C26.425 27.144 26.468 27.1401 26.5109 27.1322L26.8664 27.0619L46.5144 30.2025C45.155 32.2142 44.9871 36.2416 45.5027 38.8587C45.6707 39.7181 45.905 40.4134 46.1941 40.9564L2.84611 32.3236C2.0883 31.058 1.9008 28.8548 2.36955 26.6088L2.37061 26.6127ZM12.4406 35.5268L47.3466 42.476C47.3857 42.4838 47.4286 42.4877 47.4716 42.4877C47.5615 42.4877 47.6474 42.4682 47.7294 42.4331L65.8774 34.3198L75.2758 35.4214L53.9278 44.5152L6.02182 37.4097L12.4398 35.5308L12.4406 35.5268ZM1.53061 42.0971C1.88217 40.308 2.54621 38.8549 3.24941 38.2768L52.6444 45.6049C51.035 47.8627 50.8827 52.5854 51.5194 55.6359C51.7421 56.714 52.0546 57.5617 52.4413 58.1945L2.18729 48.7726C1.26932 47.3117 1.01106 44.7338 1.53061 42.0971ZM54.1716 58.1791C53.7341 58.0268 53.1482 57.2377 52.7614 55.3783C52.0192 51.8119 52.5856 46.6713 54.3044 45.7338L77.1244 36.015L77.1869 37.6791L55.4879 46.8197L55.441 46.8432C53.7887 47.726 53.5504 51.4799 54.0191 53.7338C54.4254 55.6869 55.2105 56.1557 55.7964 56.2026C55.8121 56.2026 55.8277 56.2065 55.8394 56.2065C55.9214 56.2065 55.9996 56.1869 56.0738 56.1518L77.5038 46.0778L77.5546 47.4137L54.1716 58.1837L54.1716 58.1791Z" fill="black" fill-opacity="0.2"/>
</svg>
