<svg xmlns="http://www.w3.org/2000/svg" version="1.1" viewBox="-5.0 -10.0 110.0 135.0">
 <path d="m88.934 55.191c0-0.011718-0.007813-0.019531-0.007813-0.027344 0-0.011718 0.003907-0.023437 0-0.039062-0.007812-0.046875-0.023437-0.085938-0.039062-0.12891-0.007813-0.019532-0.011719-0.039063-0.019531-0.058594-0.035157-0.066406-0.078126-0.12891-0.13281-0.17969-0.011719-0.011718-0.023437-0.015624-0.035156-0.027343-0.046875-0.039063-0.097657-0.070313-0.15234-0.09375-0.023437-0.011719-0.050781-0.015625-0.074219-0.023438-0.03125-0.007812-0.0625-0.023437-0.097656-0.027343l-9.6523-1.1289 0.96094-0.42969c0.23438-0.10547 0.38281-0.33984 0.375-0.59375l-0.29688-11.07c0-0.011719-0.007813-0.019531-0.007813-0.027343 0-0.011719 0.003906-0.023438 0-0.039063-0.007812-0.046875-0.023437-0.089844-0.039062-0.13281-0.007813-0.019531-0.007813-0.039062-0.015625-0.058593-0.03125-0.070313-0.078125-0.13281-0.13281-0.18359-0.011718-0.011719-0.027344-0.019531-0.039062-0.027344-0.046875-0.035156-0.09375-0.070312-0.14844-0.09375-0.023437-0.011719-0.050781-0.015625-0.078125-0.023437-0.03125-0.007813-0.058593-0.023438-0.09375-0.027344l-5.6797-0.73047 8.5742-1.707c0.16016-0.03125 0.30078-0.12109 0.39453-0.25391 1.2852-1.8164 1.2656-4.7578 0.81641-6.9062-0.41797-2-1.2266-3.5352-2.1641-4.1445-0.007813-0.007812-0.019532-0.015624-0.027344-0.019531-0.007813-0.003906-0.015625-0.015625-0.027344-0.019531-0.019531-0.011719-0.039062-0.011719-0.058594-0.019531-0.03125-0.015625-0.0625-0.035157-0.097656-0.046875l-23.977-6.7344c-0.082032-0.023438-0.16797-0.027344-0.25391-0.019531l-40.891 5.2539c-0.03125 0.003906-0.058594 0.019531-0.089844 0.027344-0.027343 0.007812-0.054687 0.011718-0.082031 0.023437-0.054687 0.023437-0.097656 0.054687-0.14453 0.089844-0.015625 0.011719-0.03125 0.019531-0.042969 0.03125-0.054687 0.050781-0.097656 0.11328-0.12891 0.18359-0.007813 0.019532-0.011719 0.039063-0.019531 0.058594-0.015625 0.042969-0.035156 0.085938-0.039063 0.12891-0.003906 0.011719 0.003907 0.023438 0 0.039063 0 0.011719-0.007812 0.019531-0.007812 0.027344l-0.29688 11.07c-0.007813 0.25781 0.14062 0.49219 0.375 0.59375l5.793 2.5898-7.0469 1.9766c-0.035157 0.011718-0.066407 0.03125-0.097657 0.046874-0.019531 0.007813-0.039062 0.011719-0.058593 0.019532-0.007813 0.003906-0.015626 0.015625-0.027344 0.019531-0.007813 0.007813-0.019532 0.011719-0.027344 0.019531-0.94141 0.60547-1.7461 2.1445-2.1641 4.1445-0.44922 2.1484-0.46875 5.0898 0.81641 6.9062 0.09375 0.13281 0.23438 0.22266 0.39453 0.25391l7.418 1.4766-6.8594 2.0117c-0.035157 0.011719-0.066407 0.03125-0.097657 0.046875-0.019531 0.007812-0.039062 0.011719-0.058593 0.023438-0.007813 0.003906-0.015625 0.015624-0.027344 0.019531-0.007813 0.007812-0.019531 0.011719-0.027344 0.019531-1.0547 0.69531-1.9531 2.4531-2.4023 4.7383-0.48438 2.4609-0.47266 5.8164 1.0117 7.8633 0.09375 0.13281 0.23828 0.22266 0.39453 0.25l51.918 9.7344c0.039063 0.007812 0.078125 0.011718 0.11719 0.011718 0.089844 0 0.17969-0.019531 0.26562-0.058594l24.473-11.27c0.23047-0.10547 0.37891-0.34375 0.36719-0.59766l-0.48437-12.734zm-0.89453 9.8242-21.668 10.188c-0.19141-0.12891-0.48828-0.59375-0.6875-1.5547-0.47266-2.2695-0.039063-5.168 0.83984-5.6758l21.289-8.9648 0.23047 6.0078zm-29.598-3.8828c-0.36719-0.16016-0.82422-0.91406-1.1133-2.375-0.60547-3.0781-0.082031-7.4883 1.3906-8.2734l19.801-8.1719 0.035157 1.2812-18.883 7.7031c-0.015625 0.007813-0.03125 0.015625-0.046875 0.019531-1.4961 0.77734-1.7383 4.0156-1.3398 6.0508 0.34375 1.7461 1.0508 2.1719 1.582 2.2227 0.015624 0.003906 0.035156 0.003906 0.050781 0.003906 0.078125 0 0.15625-0.015625 0.23047-0.050781l18.605-8.4922 0.027344 0.99219zm20.277-11.285-18.828 8.5977c-0.13281-0.12109-0.36328-0.48828-0.51953-1.2852-0.38281-1.9492 0-4.418 0.74219-4.8438l18.469-7.5352 0.13672 5.0703zm-2.0391-8.1445-18.324 7.5625-17.336-2.7695 28.609-5.6953 7.0508 0.90625zm5.3867-10.293c0.46875 2.2461 0.27734 4.4492-0.47656 5.7148l-43.348 8.6328c0.28906-0.54297 0.52344-1.2383 0.69141-2.0977 0.51562-2.6172 0.35156-6.6445-1.0117-8.6562l42.672-6.8203c0.58594 0.49609 1.1641 1.7422 1.4727 3.2305zm-25.328-9.9883 21.074 5.918-41.152 6.5781-18.324-7.5625 38.398-4.9336zm-40.301 8.0117 18.469 7.5352c0.74609 0.42578 1.1289 2.8945 0.74219 4.8438-0.15625 0.79688-0.38672 1.1641-0.51953 1.2852l-18.828-8.5977 0.13672-5.0703zm-0.16797 6.2734 18.605 8.4922c0.070312 0.03125 0.15234 0.050781 0.23047 0.050781 0.015625 0 0.035156 0 0.050781-0.003906 0.53125-0.050782 1.2383-0.47266 1.582-2.2227 0.39844-2.0352 0.15625-5.2734-1.3398-6.0508-0.015626-0.007812-0.03125-0.015625-0.046876-0.019531l-18.883-7.7031 0.035156-1.2812 19.801 8.1719c1.4727 0.78125 1.9922 5.1953 1.3906 8.2734-0.28516 1.4492-0.73828 2.2031-1.1055 2.3711l-0.019532-0.003906-20.324-9.0859 0.027344-0.99219zm6.6719 5.3711 8.8008 3.9336-14.531-2.3242 5.7344-1.6094zm-9.9883 5.6797c0.30859-1.4883 0.88672-2.7344 1.4727-3.2305l21.777 3.4805 0.50781 0.22656c0.082031 0.035156 0.17187 0.054687 0.25781 0.054687 0.039062 0 0.082031-0.003906 0.125-0.011718l0.35547-0.070313 19.648 3.1406c-1.3594 2.0117-1.5273 6.0391-1.0117 8.6562 0.16797 0.85938 0.40234 1.5547 0.69141 2.0977l-43.348-8.6328c-0.75781-1.2656-0.94531-3.4688-0.47656-5.7148zm10.07 8.9141 34.906 6.9492c0.039062 0.007812 0.082031 0.011718 0.125 0.011718 0.089843 0 0.17578-0.019531 0.25781-0.054687l18.148-8.1133 9.3984 1.1016-21.348 9.0938-47.906-7.1055 6.418-1.8789zm-10.91 6.5703c0.35156-1.7891 1.0156-3.2422 1.7188-3.8203l49.395 7.3281c-1.6094 2.2578-1.7617 6.9805-1.125 10.031 0.22266 1.0781 0.53516 1.9258 0.92188 2.5586l-50.254-9.4219c-0.91797-1.4609-1.1758-4.0391-0.65625-6.6758zm52.641 16.082c-0.4375-0.15234-1.0234-0.94141-1.4102-2.8008-0.74219-3.5664-0.17578-8.707 1.543-9.6445l22.82-9.7188 0.0625 1.6641-21.699 9.1406-0.046874 0.023437c-1.6523 0.88281-1.8906 4.6367-1.4219 6.8906 0.40625 1.9531 1.1914 2.4219 1.7773 2.4688 0.015625 0 0.03125 0.003906 0.042969 0.003906 0.082031 0 0.16016-0.019531 0.23438-0.054687l21.43-10.074 0.050781 1.3359-23.383 10.77z"/>
<text x="0.0" y="117.5" font-size="5.0" font-weight="bold" font-family="Arbeit Regular, Helvetica, Arial-Unicode, Arial, Sans-serif" fill="#000000">Created by Ar2ar</text><text x="0.0" y="122.5" font-size="5.0" font-weight="bold" font-family="Arbeit Regular, Helvetica, Arial-Unicode, Arial, Sans-serif" fill="#000000">from Noun Project</text></svg>