<svg width="21" height="21" viewBox="0 0 21 21" fill="none" xmlns="http://www.w3.org/2000/svg">
<path d="M19.504 9.96974V17.4846H16.171L16.0027 17.5035C12.9084 18.1923 10.858 18.6889 9.83607 18.9966C8.47867 19.405 7.97267 19.5048 7.05197 19.5636C6.36337 19.6087 5.58127 19.3557 5.22487 19.0092C5.02797 18.8181 4.88057 18.4254 4.82227 17.8164C4.81019 17.6887 4.76237 17.5664 4.68379 17.4624C4.60522 17.3584 4.4988 17.2765 4.37567 17.2252C4.10177 17.1118 3.87407 16.927 3.68377 16.6582C3.50777 16.4125 3.39337 15.9547 3.37247 15.2922C3.36879 15.1704 3.33262 15.0515 3.26736 14.9468C3.20211 14.842 3.10994 14.7549 2.99957 14.6937C2.35937 14.3398 2.04257 13.9408 1.97657 13.4725C1.90397 12.9549 2.07997 12.3721 2.54087 11.7085C2.64901 11.5529 2.68928 11.3631 2.65313 11.1796C2.61698 10.9961 2.50724 10.8332 2.34727 10.7257C1.90617 10.4296 1.66417 10.018 1.60367 9.43424C1.50687 8.50394 2.12837 7.81619 3.53527 7.67864C4.78831 7.56034 6.05345 7.66104 7.26867 7.97579C7.40652 8.01018 7.55179 8.00627 7.68739 7.96452C7.82299 7.92277 7.94328 7.84493 8.03411 7.74014C8.12493 7.63535 8.18252 7.50798 8.20008 7.37302C8.21765 7.23805 8.19447 7.10111 8.13327 6.97829C7.58327 5.86739 7.27747 4.95074 7.20597 4.24094C7.11247 3.29909 7.34017 2.61659 7.87257 2.05379C8.27627 1.62749 8.92197 1.38389 9.16397 1.43429C9.48297 1.49939 9.69087 1.67579 9.96147 2.29319C10.121 2.65859 10.198 2.96939 10.33 3.69494C10.4565 4.38374 10.5258 4.69454 10.6699 5.10194C11.1044 6.33674 12.1703 7.61669 13.6014 8.49974C14.6044 9.11789 15.6914 9.6019 16.8321 9.93824C16.9033 9.95921 16.9775 9.96983 17.0521 9.96974H19.504ZM19.5502 18.9157C19.9055 18.9252 20.2245 18.8496 20.4918 18.6711C20.8328 18.4432 20.9934 18.0841 20.9967 17.6704L20.9934 9.98129C21.0308 9.57179 20.9043 9.19589 20.6051 8.91659C20.3246 8.65409 19.9583 8.53019 19.5711 8.53859H17.1676C16.1953 8.24288 15.2684 7.82555 14.411 7.29749C13.2582 6.58559 12.409 5.56499 12.0845 4.64519C11.9734 4.32809 11.914 4.06559 11.8018 3.44819C11.65 2.61974 11.5554 2.23439 11.3376 1.73879C10.8866 0.707689 10.2948 0.203689 9.47857 0.0346388C8.67557 -0.131261 7.50627 0.310789 6.76707 1.09199C5.94757 1.95719 5.58567 3.03974 5.71987 4.37744C5.77707 4.95284 5.94427 5.59649 6.21927 6.31364C5.28011 6.18299 4.32768 6.16325 3.38347 6.25484C1.17577 6.47009 -0.0639324 7.84244 0.116467 9.57704C0.195667 10.3246 0.479467 10.9599 0.962368 11.4586C0.556467 12.2052 0.394768 12.9433 0.495968 13.6636C0.612568 14.4931 1.09657 15.184 1.90177 15.7206C1.96447 16.4482 2.13937 17.0289 2.44957 17.4636C2.69399 17.8148 3.01289 18.1131 3.38567 18.3393C3.50447 19.0575 3.75417 19.6192 4.16227 20.014C4.83877 20.6713 6.04767 21.063 7.15207 20.9916C8.20037 20.9244 8.82077 20.8026 10.2838 20.3616C11.2485 20.0707 13.2461 19.5877 16.2568 18.9157H19.5513H19.5502ZM17.6791 9.64319C17.6794 9.54925 17.6602 9.45618 17.6228 9.36931C17.5853 9.28244 17.5303 9.20348 17.4608 9.13696C17.3913 9.07043 17.3087 9.01765 17.2178 8.98164C17.1269 8.94562 17.0295 8.92709 16.9311 8.92709C16.8328 8.92736 16.7356 8.9461 16.645 8.98224C16.5543 9.01838 16.472 9.0712 16.4028 9.1377C16.3335 9.20419 16.2787 9.28306 16.2414 9.36979C16.204 9.45652 16.185 9.54942 16.1853 9.64319V17.7051C16.1851 17.7989 16.2043 17.8917 16.2418 17.9784C16.2792 18.0651 16.3342 18.1439 16.4036 18.2103C16.4729 18.2767 16.5553 18.3294 16.646 18.3654C16.7367 18.4014 16.8339 18.42 16.9322 18.4201C17.0304 18.42 17.1276 18.4014 17.2183 18.3654C17.309 18.3294 17.3914 18.2767 17.4608 18.2103C17.5301 18.1439 17.5851 18.0651 17.6226 17.9784C17.66 17.8917 17.6792 17.7989 17.6791 17.7051V9.64319Z" fill="#45B09E"/>
</svg>
