<?xml version="1.0" standalone="no"?>
<svg version="1.1" id="Layer_1" xmlns="http://www.w3.org/2000/svg" xmlns:xlink="http://www.w3.org/1999/xlink" x="0px" y="0px" width="595.28px" height="595.28px" viewBox="0 0 595.28 595.28" enable-background="new 0 0 595.28 595.28" xml:space="preserve">
<path id="color_x5F_2" fill="#ffffff" d="M509.713,386.39c2.122-0.037,4.244-0.056,6.366-0.064
	c-0.294,1.325-0.426,2.716-0.622,4.043c-0.161,1.083-0.366,2.187-0.501,3.289c-2.098,0.12-4.213,0.356-6.334,0.617
	c0.109-1.42,0.381-2.85,0.583-4.251C509.376,388.835,509.487,387.59,509.713,386.39z M534.47,386.373
	c-2.593-0.003-5.187-0.017-7.781-0.03c-0.232,1.199-0.303,2.466-0.438,3.658c-0.123,1.08-0.282,2.173-0.361,3.263
	c2.132-0.047,4.264-0.095,6.396-0.104c2.374-0.01,1.541,0.318,1.808-1.777C534.247,390.175,534.763,387.871,534.47,386.373z
	 M463.493,448.387l0.031-0.026c-0.014,0.006-0.026,0.012-0.04,0.018C463.486,448.379,463.493,448.387,463.493,448.387z
	 M472.876,438.995c-3.491-1.608-6.553-4.125-8.029-7.726c-2.456,1.548-5.097,2.798-7.802,4.016c0.053,0.042,0.107,0.082,0.133,0.145
	c1.607,4.006,3.288,8.349,6.753,11.125c0.008,0.007,0.011,0.014,0.018,0.021c3.748-1.979,7.08-4.606,10.201-7.591
	c-0.088-0.018-0.193-0.039-0.334-0.067C473.444,439.032,473.065,439.083,472.876,438.995z M490.021,450.789
	c0.198-0.421,0.404-0.838,0.608-1.256l-0.803,1.187C489.827,450.72,489.9,450.747,490.021,450.789z M507.798,441.351
	c-3.314,0-6.622-0.027-9.918-0.408c-0.244-0.028-0.41-0.097-0.522-0.188c-1.959,3.307-3.8,6.682-5.424,10.184
	c3.755,1.021,7.779,0.36,11.61,0.102c0.046-0.059,0.09-0.117,0.123-0.169c0.529-0.84,1.051-1.684,1.563-2.534
	c1.241-2.055,2.466-4.12,3.675-6.194c0.296-0.508,0.592-1.017,0.889-1.525l-0.882-0.088
	C508.845,440.938,508.431,441.351,507.798,441.351z M502.283,414.774c-0.259-0.02-0.508-0.039-0.751-0.058
	c-0.59,1.296-1.993,4.233-3.541,6.486C499.858,419.314,501.356,417.118,502.283,414.774z M511.831,415.481
	c-0.777-0.107-4.28-0.331-7.523-0.561c-2.656,6.348-8.841,11.448-15.637,13.213c4.902,0.424,9.842,0.518,14.631-0.635
	c0.031-0.014,0.057-0.029,0.092-0.042c5.22-1.963,9.415-5.367,13.814-8.689c0.068-0.052,0.145-0.091,0.223-0.126
	C516.529,417.053,514.781,415.888,511.831,415.481z M517.037,415.629c-0.07-0.08-0.136-0.167-0.21-0.242
	c-0.366-0.366-1.665-0.631-3.353-0.824C514.741,414.798,515.967,415.133,517.037,415.629z M491.569,404.355
	c0.639-0.151,1.268-0.367,1.889-0.656C492.845,403.875,492.197,404.091,491.569,404.355z M495.657,403.982
	c-7.356,4.516-14.642-0.362-22.451-1.102l-1.841,3.17c-0.925,2.113-1.697,4.215-2.324,6.265c7.655,3.52,18.992,5.953,26.633,1.272
	C495.261,410.372,495.345,407.174,495.657,403.982z M482.071,390.005c-1.185,3.83,12.344,5.228,14.732,5.26
	c-0.02-0.057-0.049-0.106-0.045-0.179c0.136-2.158,0.695-4.354,1.076-6.478c0.103-0.573,0.196-1.153,0.29-1.734
	c-3.791,0.359-9.264,0.77-11.143-2.222c-1.82,1.478-3.552,3.151-5.181,4.972C482.01,389.684,482.134,389.802,482.071,390.005z
	 M483.827,385.72l-0.287,0.383c0.399-0.361,0.795-0.727,1.203-1.07L483.827,385.72z M491.766,385.141
	c-1.158-0.457-2.181-1.094-2.894-1.604C489.459,384.534,490.557,384.969,491.766,385.141z M510.944,367.23
	c0.059-0.212,0.125-0.423,0.173-0.637c1.871-8.322-7.668-14.803-14.888-9.64l4.926,3.797
	C504.414,362.917,507.662,365.099,510.944,367.23z M189.936,404.487c2.537-0.85,4.808-1.721,6.521-2.413
	c-1.217,0.223-2.455,0.64-3.717,1.175C191.794,403.65,190.86,404.063,189.936,404.487z M193.489,317.978
	c0.288-0.467,0.729-0.792,1.404-0.875c0.617-0.076,0.944,0.023,1.063,0.202c12.865,0,25.729,0,38.595,0
	c-8.445-10.657-17.437-20.866-29.803-27.019c-8.661,1.4-17.873,0.477-25.891-2.49c-0.391-0.145-0.575-0.349-0.623-0.571
	c-0.683-0.159-1.076-0.255-1.076-0.255s0.001-0.037,0.004-0.089l-0.012-0.002c-0.381,2.535,0.145,5.702,0.24,7.842
	c0.414,0.055,0.653,0.249,0.426,0.64c-2.682,4.6-7.011,7.353-11.619,8.289c-1.517,0.631-3.066,0.911-4.539,0.571
	c-0.471-0.109-0.928-0.233-1.377-0.366c-6.119-0.815-11.713-4.843-13.572-12.079c-0.098-0.379,0.38-0.736,0.974-0.952
	c0.56-1.121,1.132-2.263,1.687-3.424c-0.074-0.003-0.157-0.007-0.236-0.011c-1.119,0.034-2.252,0.084-3.395,0.144
	c-25.555,6.097-46.916,21.476-61.549,43.348c-14.447,21.593-22.806,46.701-28.283,71.933c-2.786,12.834-6.105,28.117,1.01,39.829
	c2.302,3.014,5.104,5.941,8.11,8.523c9.415,6.749,21.993,8.632,33.302,8.992c27.967,0.891,56.76-5.492,83.24-14.374
	c-0.075-1.61-0.797-3.723-1.015-4.898c-0.733-3.973-1.526-7.934-2.363-11.886c-1.835-8.664-3.771-17.321-6.147-25.855
	c-28.906,6.511-58.522,10.369-88.172,10.456c-1.959,0.006-0.22-1.927,1.051-1.931c5.07-0.015,10.142-0.151,15.21-0.387
	c12.714-22.348,12.644-50.014,27.812-71.189c0.483-0.675,2.988-0.734,2.85-0.541c-15.261,21.305-15.092,49.182-28.043,71.601
	c23.656-1.271,47.222-4.847,70.281-10.117c0.521-0.119,1.495-0.179,1.688,0.503c0.899,3.188,1.722,6.398,2.516,9.616
	c3.163-3.074,6.992-5.256,11.06-7.04c3.225-1.414,6.878-3.454,10.531-3.551c0.009-0.025,0.01-0.046,0.021-0.072
	c1.258-3.091,2.936-5.534,4.907-7.439c-0.554,0.009-0.98-0.158-0.876-0.573c0.293-1.161-0.269-3.041-0.415-4.219
	c-0.41-3.292-0.856-6.579-1.31-9.865c-1.282-9.319-2.612-18.631-3.919-27.947c-1.174-8.37-2.375-16.738-3.399-25.127
	c-0.192-1.573-1.412-5.453-0.388-7.269C193.461,318.027,193.474,318.002,193.489,317.978z M178.812,448.376
	c1.153-0.276,2.137-0.511,2.914-0.696c-0.104-0.045-0.182-0.108-0.236-0.186C180.598,447.791,179.707,448.089,178.812,448.376z
	 M139.659,458.22c0.126-0.047,0.288-0.103,0.483-0.165c-2.576,0.466-5.155,0.899-7.738,1.296
	C135.977,458.968,138.7,458.58,139.659,458.22z"></path>
<path id="color_x5F_1" d="M191.483,246.304c6.467,0.915,1.236-11.323-0.278-14.043c-0.642-1.153,2.169-2.096,2.68-1.178
	c2.954,5.305,7.333,18.54-3.491,17.008C188.447,247.815,190.271,246.133,191.483,246.304z M174.742,259.443
	c-1.362-0.017-2.241-0.629-2.7-1.926c-0.252-0.709-3.113,0.167-2.898,0.776c0.605,1.709,1.987,2.336,3.726,2.358
	c0.696,0.009,1.46-0.168,2.05-0.549C175.371,259.811,175.312,259.45,174.742,259.443z M178.191,234.261
	c-0.658-0.226-1.442,0.055-2.037,0.326c-2.536,1.159-5.3,0.283-7.417-1.3c-0.719-0.538-3.313,0.604-2.713,1.052
	c3.569,2.668,7.91,2.645,11.856,0.842C178.207,235.031,178.819,234.476,178.191,234.261z M202.598,228.988
	c-0.689,0.009-1.45,0.208-2.05,0.549c-0.467,0.266-0.398,0.541,0.144,0.535c2.631-0.032,5.598-0.686,7.196-2.957
	c0.271-0.384-1.065-0.208-1.137-0.194c-0.517,0.1-1.381,0.272-1.711,0.742C204.337,228.661,203.775,228.974,202.598,228.988z
	 M178.39,214.101c-4.696-1.263-10.095-1-12.929,3.486c-0.857,1.357,2.099,1.388,2.77,0.327c1.843-2.917,5.55-2.656,8.485-1.867
	C177.955,216.381,180.146,214.573,178.39,214.101z M195.239,213.991c2.289-0.873,4.678-1.277,7.11-0.859
	c0.675,0.116,1.52-0.118,2.049-0.549c0.465-0.378,0.337-0.819-0.246-0.919c-3.4-0.583-6.827,0.064-10.019,1.281
	c-0.291,0.11-1.257,0.635-0.798,1.07C193.795,214.45,194.742,214.181,195.239,213.991z M146.015,248.601c-0.535,0-1.07,0-1.605,0
	c-0.638,0-1.506,0.233-1.922,0.756c-0.429,0.539,0.364,0.72,0.75,0.72c0.535,0,1.07,0,1.605,0c0.638,0,1.506-0.233,1.922-0.756
	C147.193,248.783,146.4,248.601,146.015,248.601z M293.737,207.45c14.285-0.047,28.547-1.024,42.832-1.071
	c1.238-0.004,3.023-1.889,1.063-1.882c-14.285,0.047-28.547,1.024-42.832,1.071C293.562,205.572,291.776,207.457,293.737,207.45z
	 M293.737,221.37c14.285-0.047,28.547-1.023,42.832-1.071c1.238-0.004,3.023-1.889,1.063-1.882
	c-14.285,0.047-28.547,1.023-42.832,1.071C293.562,219.492,291.776,221.377,293.737,221.37z M293.737,234.22
	c14.285-0.047,28.547-1.024,42.832-1.072c1.238-0.004,3.023-1.889,1.063-1.882c-14.285,0.047-28.547,1.024-42.832,1.072
	C293.562,232.342,291.776,234.227,293.737,234.22z M293.737,247.069c14.285-0.047,28.547-1.024,42.832-1.072
	c1.238-0.004,3.023-1.889,1.063-1.882c-14.285,0.047-28.547,1.024-42.832,1.072C293.562,245.191,291.776,247.076,293.737,247.069z
	 M282.103,266.08c-0.026-27.13-1.044-54.248-1.07-81.377c0-0.614,0.861-1.051,1.648-1.103c0.227-0.095,0.459-0.154,0.676-0.154
	c21.129,0.005,42.259,0.163,63.389,0.17c0.242-0.034,0.483-0.03,0.698,0.012c0.521,0.037,0.714,0.232,0.69,0.487
	c0.037,0.088,0.063,0.184,0.063,0.297c0.026,27.13,1.044,54.248,1.07,81.377c0.001,0.855-1.674,1.373-2.485,0.971
	c-0.194,0.071-0.391,0.116-0.575,0.116c-21.082,0.003-42.163,0.113-63.246,0.117c-0.789,0-0.965-0.306-0.82-0.67
	C282.116,266.25,282.103,266.17,282.103,266.08z M283.955,185.33c0.046,26.597,1.019,53.183,1.06,79.78
	c20.443-0.007,40.885-0.107,61.328-0.113c-0.05-26.503-1.015-52.996-1.059-79.5C324.842,185.488,304.398,185.343,283.955,185.33z
	 M373.275,228.145c-4.454-4.415-6.195-12.12-2.401-17.565c2.629-3.773,6.61-5.567,10.924-5.903
	c-4.024-4.241-0.523-11.422,3.564-14.827c5.415-4.511,12.254-6.096,19.016-5.065c-1.968-27.318,50.081-25.194,44.325,3.003
	c-0.027,0.133-0.088,0.254-0.164,0.367c7.397,0.155,15.495,1.243,20.309,7.438c4.846,6.236,4.517,16.678,2.887,24
	c-1.363,6.125-5.647,9.159-11.581,10.558c-9.203,2.17-18.905,2.467-28.322,2.785c-11.502,0.388-23.037,0.489-34.54,0.066
	C390.01,232.732,378.96,233.779,373.275,228.145z M371.896,219.195c1.257,7.017,6.531,10.951,13.442,11.659
	c16.67,1.708,33.705,1.424,50.424,0.704c8.208-0.354,17.187-0.279,25.092-2.689c6.895-2.102,8.284-7.656,8.676-14.205
	c0.397-6.633,0.307-15.149-5.104-19.987c-5.187-4.64-12.338-5.214-19-5.271c-0.864-0.007-0.296-0.448,0.451-0.808
	c-0.115-0.149-0.166-0.347-0.114-0.603c5.193-25.444-41.157-27.789-38.417-3.13c0.021,0.187-0.014,0.361-0.085,0.521
	c0.235,0.062,0.472,0.117,0.706,0.186c0.848,0.248-1.716,1.318-2.381,1.123c-7.813-2.284-16.943-0.545-21.091,7.14
	c-2.027,3.755-2.514,8.337,1.334,10.933c0.309,0.048,0.409,0.146,0.36,0.27c0.088,0.304-1.982,1.293-2.709,0.963
	C375.874,205.386,370.546,211.646,371.896,219.195z M470.35,280.295c2.667,0.064,5.336,0.093,8.004,0.111
	c7.785,0.051,15.57,0.033,23.355,0.002c10.787-0.042,22.161-1.179,32.909-0.109c1.785,0.178,0.7,1.938-0.604,2.14
	c0.013,0.064,0.016,0.133-0.001,0.213c-0.517,2.473-0.122,5.419-0.128,7.925c-0.011,5.343-0.002,10.686-0.02,16.029
	c-0.016,4.883-0.01,9.772-0.168,14.653c-0.045,1.402,0.467,4.523-1.26,5.172c-0.321,0.121-0.666,0.151-0.978,0.12
	c-0.426,0.181-0.862,0.3-1.119,0.272c-10.969-1.19-24.526-0.373-36.209-0.578c-7.694-0.135-15.392-0.265-23.083-0.522
	c-1.314-0.044-8.598,0.627-9.484-0.771c-0.295-0.467,0.314-0.931,1.035-1.173c-0.129-0.272,0.053-0.604,0.796-0.883
	c-1.296,0.485-0.603-0.335-0.536-1.918c0.065-1.55,0.105-3.101,0.131-4.652c0.078-4.655,0.095-9.311,0.102-13.966
	c0.008-4.573-0.001-9.146,0.016-13.719c0.008-2.076-0.304-4.496,0.124-6.545c0.054-0.254,0.271-0.473,0.563-0.643
	c-0.138-0.139-0.273-0.278-0.395-0.423c-0.866-1.042,1.906-2.137,2.668-1.221c0.043,0.052,0.098,0.101,0.143,0.152
	c0.375,0.021,0.713,0.16,0.907,0.461c-0.436-0.676-0.415-0.286,0.636-0.228C468.619,280.241,469.484,280.274,470.35,280.295z
	 M530.521,325.237c-0.105-0.255,0.173-0.929,0.214-1.894c0.076-1.778,0.117-3.557,0.144-5.336c0.071-4.682,0.088-9.363,0.096-14.045
	c0.008-4.855-0.002-9.711,0.018-14.566c0.006-1.655-0.188-3.531-0.035-5.253c-1.027,0.622-2.134,1.167-2.616,1.48
	c-3.7,2.4-7.433,4.751-11.162,7.105c-3.931,2.48-7.869,4.951-11.778,7.466c-1.131,0.728-5.379,2.604-5.945,3.984
	c0.3,0.955-2.1,1.817-2.801,0.974c-1.4-1.684-3.949-2.962-5.707-4.227c-3.839-2.761-7.69-5.504-11.54-8.249
	c-3.717-2.65-7.438-5.294-11.136-7.971c-0.7-0.507-1.522-1.013-2.327-1.553c-0.196,2.198,0.068,4.607,0.065,6.715
	c-0.01,5.05-0.002,10.099-0.02,15.148c-0.017,4.826-0.004,9.66-0.18,14.483c-0.047,1.292,0.338,3.877-1.115,4.593
	c1.938,0.602,9.799,0.218,11.245,0.257c7.784,0.21,15.57,0.351,23.355,0.479C509.56,324.996,520.256,324.309,530.521,325.237z
	 M531.103,325.288c0.059-0.026,0.113-0.053,0.182-0.079c-0.098,0.037-0.163,0.052-0.239,0.074
	C531.064,325.285,531.083,325.286,531.103,325.288z M473.708,282.54c-0.662-0.009-2.238,0.142-3.913,0.19
	c0.7,0.446,1.387,0.876,1.981,1.304c3.838,2.761,7.689,5.504,11.539,8.249c3.717,2.65,7.438,5.294,11.136,7.971
	c1.21,0.876,2.779,1.746,3.991,2.8c1.096-0.688,2.354-1.302,2.874-1.64c3.7-2.4,7.433-4.752,11.162-7.105
	c3.931-2.48,7.869-4.951,11.778-7.466c1.16-0.747,5.574-2.684,5.989-4.075c0.054-0.181,0.29-0.336,0.603-0.459
	c-3.179-0.06-6.783,0.163-9.871,0.179c-8.166,0.045-16.333,0.094-24.5,0.114C488.889,282.622,481.297,282.649,473.708,282.54z
	 M489.632,369.527c-0.002,0.225-0.033,0.393-0.124,0.598c-0.111,0.252,0.502,0.175,0.585,0.16c0.242-0.042,0.731-0.146,0.847-0.406
	c0.11-0.25,0.14-0.47,0.142-0.74C491.083,368.879,489.636,369.091,489.632,369.527z M503.288,376.246
	c0.922-0.647,1.391-1.958,0.775-2.958c-0.27-0.438-1.639,0.079-1.449,0.388c0.365,0.594,0.365,1.279,0.006,1.879
	c-0.38,0.636-0.802,0.774-1.415,0.334c-0.262-0.187-0.679-0.087-0.95,0.021c-0.104,0.042-0.661,0.334-0.403,0.519
	C500.915,377.19,502.263,376.965,503.288,376.246z M535.999,393.459c-0.273-0.005-0.449-0.058-0.55-0.139
	c-0.434,0.558-0.965,0.941-1.612,1.025c-2.845,0.369-5.791,0.406-8.746,0.382c-0.411,0.138-0.88,0.15-1.166-0.012
	c-2.32-0.027-4.636-0.06-6.907,0.012c-0.002,0.038-0.007,0.076-0.009,0.113c-0.033,0.788-2.221,1.21-2.18,0.245
	c0.004-0.085,0.016-0.171,0.021-0.256c-2.401,0.164-4.843,0.466-7.298,0.768c-0.084,0.011-0.169,0.021-0.254,0.031
	c-2.918,0.359-5.852,0.701-8.754,0.796c0.14,0.094,0.229,0.228,0.199,0.433c-0.818,5.491-1.627,10.952-0.855,16.491
	c0.044,0.064,0.057,0.139,0.026,0.224c0.009,0.055,0.011,0.11,0.02,0.166c2.984-0.534,8.736,0.113,9.288,0.159
	c1.796,0.148,4.08,0.263,6.253,0.666c1.267,0.235,2.492,0.57,3.563,1.066c2.399,1.111,4.01,3.035,3.483,6.499
	c-1.064,7.013-5.952,13.645-9.467,19.653c-1.711,2.926-3.405,5.874-5.237,8.728c-0.345,0.538-0.669,1.207-1.175,1.63
	c2.07,0.722,3.809,2.179,5.68,3.296c2.268,1.354,4.758,2.259,7.025,3.614c0.238,0.142-1.528,1.037-2.051,0.725
	c-2.263-1.351-4.719-2.344-7.027-3.614c-1.977-1.087-3.688-2.743-5.893-3.369c-0.248-0.07-0.055-0.249,0.285-0.422
	c-0.035-0.057-0.02-0.123,0.061-0.197c-2.7,0.175-5.434,0.491-8.137,0.395c0.001,0.094-0.033,0.203-0.115,0.329
	c-1.721,2.64-3.629,5.135-4.702,8.122c8.518,1.297,16.932-1.025,25.457-1.027c1.048,0-0.987,0.85-1.42,0.85
	c-8.398,0.002-16.612,2.16-24.996,1.101c-0.685,0.154-1.479-0.083-1.229-0.833c1.049-3.127,3.038-5.699,4.819-8.432
	c0.066-0.102,0.164-0.188,0.281-0.262c-0.916-0.111-1.827-0.272-2.729-0.535c-0.246-0.072-0.243-0.205-0.106-0.352
	c-0.083-0.041-0.135-0.093-0.098-0.173c0.088-0.19,0.185-0.375,0.273-0.565c0.198-0.421,0.404-0.838,0.608-1.256
	c3.471-7.1,7.756-13.727,12.131-20.304c-5.646,1.232-11.819,1.144-17.74,0.419c-6.487,7.585-13.02,14.665-21.496,18.712
	c-0.014,0.006-0.026,0.012-0.04,0.018c-3.636,1.731-7.622,2.914-12.128,3.324c-0.234,0.021-0.402-0.007-0.541-0.054
	c-0.002,0.006-0.004,0.013-0.006,0.019c-0.284,1.134-0.566,2.268-0.847,3.403c-0.453,1.827-0.906,3.652-1.367,5.476
	c0.03,0.035,0.059,0.074,0.089,0.108c0.083,0.095-0.018,0.222-0.203,0.348c-0.053,0.206-0.102,0.413-0.154,0.619
	c-0.134,0.52-2.246,0.811-2.141,0.398c0.077-0.301,0.149-0.604,0.227-0.905c-1.486-1.753-2.742-3.873-3.783-6.162
	c-24.881,4.075-50.193,6.46-75.299,8.664c0.022,0.008,0.038,0.029,0.063,0.036c1.594,0.428-0.97,1.692-1.803,1.469
	c-0.231-0.062-0.427-0.153-0.605-0.255c-0.363,0.179-0.768,0.298-1.074,0.278c-29.989-1.965-60.108-2.23-90.152-2.474
	c-15.201-0.124-30.404-0.175-45.607-0.187c-3.114-0.002-9.32,1.581-11.268-1.641c-1.321-2.186-3.422-11.072-5.959-11.721
	c-1.146-0.293-0.148-1.03,0.815-1.345c-1.374-1.125-2.638-2.41-3.729-3.895c-0.664-0.903,2.137-1.875,2.695-1.115
	c5.061,6.883,15.477,10.886,23.775,7.926c0.197-0.447,1.287-1.064,1.926-1.063c0.142,0,0.283,0.002,0.424,0.002
	c0.814-0.454,1.602-0.982,2.346-1.601c7.079-5.879,9.647-15.229,9.611-24.142c-0.002-0.488,0.58-0.864,1.223-1.056
	c0.02-0.229,0.259-0.473,0.84-0.678c12.494-4.408,25.612-6.402,38.391-9.769c0.846-0.223,1.371,0.03,1.502,0.399
	c0.629-0.09,1.202,0.055,1.229,0.529c0.159,2.87,0.056,5.75,0.225,8.618c0.115,1.972,0.447,4.448,2.698,2.039
	c2.853-3.053,1.469-9.583,1.451-13.326c-0.004-0.822,1.685-1.346,2.491-0.957c0.093-0.39,0.431-0.759,1.076-0.916
	c2.029-0.492,4.008-0.368,5.995-0.656c0.676-0.77,2.551-1.023,2.651-0.188c0.567,0.353,0.654,1.143,0.073,1.655
	c0.083,2.458,0.075,4.924,0.273,7.372c0.134,1.659,0.083,4.837,2.364,3.17c3.582-2.618,2.014-10.03,1.996-13.763
	c-0.005-1.078,2.906-1.648,2.912-0.31c0.001,0.193,0.007,0.391,0.011,0.586c0.11-0.056,0.223-0.076,0.335-0.108
	c-0.001,0-0.001-0.001-0.001-0.001c0.077-0.021,0.15-0.05,0.228-0.073c4.111-1.225,7.117-5.619,4.04-9.519
	c-3.553-4.503-8.914-2.875-13.748-1.909c-7.413,1.481-14.817,3.003-22.217,4.551c-7.47,1.563-14.937,3.139-22.39,4.78
	c-2.513,0.553-5.025,1.105-7.529,1.697c-0.659,0.156-3.291,1.002-2.643,0.589c0.009-0.021,0.018-0.043,0.027-0.064
	c-0.406,0.295-0.964,0.518-1.409,0.479c-0.097-0.008-0.217-0.02-0.339-0.039c-0.56,0.702-2.162,1.042-2.583,0.325
	c-8.567-14.612-37.699-27.986-46.378-6.652c-0.006,0.015-0.017,0.027-0.023,0.041c2.408,0.368,5.176,1.341,5.575,3.648
	c0.528,3.048-2.331,4.554-4.658,5.738c-0.656,0.334-3.364,0.531-1.658-0.337c2.489-1.267,5.264-4.281,2.072-6.459
	c-2.069-1.413-4.216-1.66-6.435-1.254c-1.217,0.223-2.455,0.64-3.717,1.175c-0.945,0.401-1.879,0.814-2.804,1.238
	c-4.339,1.986-8.404,4.321-11.606,8.024c-0.11,0.127-0.367,0.248-0.68,0.346c1.426,5.906,2.725,11.845,3.945,17.791
	c0.616,2.996,1.211,5.997,1.762,9.006c0.012,0.002,0.027,0.001,0.039,0.004c10.025,2.318,25.971,4.941,34.174-3.073
	c0.376-0.367,0.711-0.754,1.029-1.15c-0.643-0.673,0.258-1.634,1.215-1.805c2.277-4.098,2.235-9.188,1.219-13.857
	c-0.557-2.556-1.36-6.526-3.605-8.201c-4.502-3.358-9.679-0.933-14.536,0.097c-1.726,0.366-2.104-0.911-0.344-1.284
	c2.621-0.556,5.572-1.429,8.427-1.832c-0.272-0.152-0.433-0.414-0.363-0.808c0.89-5.084,6.754-7.744,11.552-7.307
	c7.063,0.644,10.029,6.427,12.202,12.553c2.481,6.998,5.461,14.619-0.413,20.695c-3.505,3.625-8.898,4.257-13.45,2.652
	c-8.564,9.167-25.283,7.664-36.792,5.244c0.053,0.309,0.117,0.616,0.169,0.925c0.104,0.628,0.366,1.538,0.51,2.416
	c1.097-0.055,1.223,1.019,0.038,1.568c-0.018,0.091-0.029,0.187-0.058,0.269c-0.285,0.828-1.94,1.233-2.643,0.919
	c-0.104-0.045-0.182-0.108-0.236-0.186c-0.892,0.296-1.782,0.594-2.678,0.882c-12.634,4.063-25.597,7.31-38.669,9.678
	c-2.576,0.466-5.155,0.899-7.738,1.296c-0.889,0.137-1.777,0.289-2.667,0.417c-19.014,2.741-41.003,4.768-59.204-2.878
	c-11.338-4.763-19.439-13.996-20.66-26.519c-0.855-8.77,0.987-17.354,2.839-25.885c2.418-11.141,5.293-22.208,9.043-32.98
	c6.942-19.943,16.521-39.511,31.032-55.09c12.546-13.47,28.017-23.08,45.368-28.472c-5.932,0.267-11.89,0.232-17.368-1.322
	c-9.113-2.586-9.475-13.819-3.736-19.839c-11.761-0.786-29.943,2.863-35.991-9.514c-6.794-13.9,11.521-25.255,22.896-29.587
	c-5.765-4.553-15.899-9.033-11.042-17.686c3.286-5.855,12.318-7.309,19.094-8.008c-0.431-1.126-1.102-3.147-1.504-5.63
	c-0.498-1.79-0.696-3.608-0.283-5.319c0.064-1.011,0.199-2.04,0.439-3.07c1.75-7.5,10.25-14.25,18-14
	c2.886,0.093,4.176,1.087,4.66,2.299c0.688-0.876,1.406-1.733,2.084-2.611c3.449-4.47,6.99-9.18,11.738-12.37
	c6.11-4.105,13.637-6.783,21.032-7.207c5.358-0.308,8.422,1.658,6.438,5.887c11.127-2.444,23.618-5.979,34.732-3.12
	c3.37,0.867,11.111,3.553,10.295,8.325c-0.581,3.392-3.33,5.684-6.266,7.397c8.031,0.4,18.729-1.159,23.745,5.704
	c6.281,8.593-1.089,15.993-8.405,20.534c7.19,3.483,15.711,7.884,20.085,14.567c4.321,6.601-0.065,10.977-5.729,13.697
	c7.24,2.582,13.33,10.397,11.634,18.152c-1.324,6.06-8.232,8.016-13.843,9.575c7.306,3.489,18.64,11.623,9.361,18.637
	c-3.954,2.99-10.493,3.007-15.169,2.933c-3.095-0.05-6.188-0.232-9.267-0.55c2.512,3.833-4.782,8.795-9.565,11.015
	c-2.43,1.127-4.997,2.001-7.639,2.657c12.161,6.661,21.077,16.967,29.619,27.814c18.06,0,36.12,0,54.181,0
	c0.269-1.103,1.072-0.945,2.226-1.782c3.598-2.614,4.189-8.313,8.234-10.378c0.062-0.031,0.119-0.053,0.18-0.082
	c2.646-6.164,6.414-12.23,13.627-13.036c3.173-0.354,7.456,1.374,9.694,3.994c4.083-2.456,6.762-1.792,8.272,0.352
	c1.42-1.24,3.313-1.986,5.053-0.923c2.227,1.362,2.995,4.813,3.264,7.198c0.242,2.152,0.272,4.693-0.666,6.746
	c-0.393,2.715-0.3,5.412-1.49,7.912c3.645,0,7.289,0,10.934,0c0-11.42,0-22.84,0-34.26c-12.409,0-24.817,0-37.227,0
	c-0.674,0-1.043-0.248-1.178-0.571c-0.348-0.026-0.596-0.14-0.596-0.366c0.004-1.815,0.037-3.632,0.102-5.446
	c0.037-1.054-0.102-2.388,0.238-3.405c0.299-0.896,3.179-1.287,2.885-0.407c-0.361,1.086-0.213,2.544-0.246,3.668
	c-0.043,1.478-0.067,2.956-0.074,4.434c12.67,0,25.34,0,38.01,0c1.299,0,1.48,0.91,0.984,1.53c0,11.608,0,23.216,0,34.824
	c9.016,0,18.031,0,27.048,0c0.132,0,0.251,0.012,0.36,0.03c0.121-0.061,0.256-0.113,0.407-0.154
	c1.702-0.454,2.076,0.861,0.448,1.346c-0.001,0.002-0.002,0.004-0.002,0.006c1.518-0.445,1.039-1.434,1.282-0.082
	c0.105,0.584,0.22,1.166,0.339,1.747c0.4,1.945,0.826,3.885,1.258,5.824c1.488,6.675,3.032,13.337,4.58,19.999
	c3.086,13.287,6.197,26.568,9.296,39.852c4.713,0.012,9.859,0.228,14.311-0.433c-0.073-0.067-0.116-0.152-0.116-0.259
	c0-46.757,0-93.515,0-140.272c0-1.124,2.898-1.672,2.898-0.776c0,19.569,0,39.139,0,58.708c6.654,0,13.308-0.023,19.961-0.101
	c4.752-0.055,9.505-0.117,14.254-0.275c2.553-0.085,5.661,0.218,8.134-0.504c1.672-0.488,1.866,0.279,0.205,0.765
	c-6.51,1.901-14.607,0.975-21.288,1.064c-7.088,0.095-14.177,0.13-21.266,0.136c0,26.826,0,53.653,0,80.479
	c0,0.43-0.424,0.774-0.947,0.987c-0.003,0.249-0.873,0.748-1.578,0.873c-4.621,0.822-9.567,0.673-14.32,0.667
	c0.977,4.188,1.957,8.374,2.929,12.562c1.919,8.274,3.832,16.55,5.694,24.837c0.747,3.324,1.49,6.649,2.207,9.979
	c0.135,0.625,0.637,1.803,0.692,2.75c0.309-0.175,0.65-0.292,0.961-0.291c11.78,0.031,23.552,0.637,35.333,0.667
	c0.93,0.002,1.017,0.431,0.723,0.88c0.059-0.014,0.115-0.017,0.174-0.026c7.694-3.876,15.976-6.042,21.375-13.222
	c-3.122-2.76-4.051-6.91-3.326-12.356c0.034-0.256,0.209-0.463,0.443-0.613c2.922-9.156,8.867-19.131,16.463-25.996
	c0.399-0.361,0.795-0.727,1.203-1.07c1.989-1.671,4.08-3.124,6.251-4.291c0.237-0.127,0.765-0.209,1.165-0.202
	c0.02-0.161,0.047-0.332,0.084-0.519c0.598-3.009-1.599-3.783-3.732-4.887c-4.545-2.351-3.535-6.422-1.123-10.208
	c-1.108-1.117-1.906-2.592-2.123-4.09c-0.025-0.177,0.08-0.328,0.236-0.446c-0.079-0.12-0.045-0.276,0.231-0.455
	c1.333-0.863,3.72-0.792,5.615-0.016c0.747-0.812,1.454-1.538,2.042-2.137c0.057-0.059,0.162-0.114,0.289-0.165
	c0.154-0.141,0.422-0.287,0.721-0.395c-0.226-0.069-0.279-0.21,0.054-0.452c5.247-3.812,14.929-4.116,18.148,2.719
	c4.024,8.543-5.332,17.527-11.538,22.552c0.09,0.083,0.129,0.198,0.086,0.353c-0.237,0.854-0.414,1.732-0.575,2.615
	c2.585-0.106,5.17-0.219,7.758-0.266c0.192-0.003,0.384-0.003,0.576-0.007c0.267-0.052,0.53-0.058,0.733-0.009
	c8.367-0.129,16.735-0.053,25.104-0.045c0.374-0.166,0.832-0.244,1.146-0.167c1.856-1.778,3.826-3.412,5.832-5.019
	c0.427-0.341,1.288-0.458,1.7-0.042C548.4,384.47,542.114,393.571,535.999,393.459z M222.506,414.21
	c2.44,6.227,3.314,14.273-0.411,20.08c4.563,1.495,10.059,0.167,11.811-4.943c1.47-4.285-0.07-8.544-1.437-12.659
	c-1.306-3.933-2.839-10.119-6.577-12.533c-3.808-2.459-11.373-2.145-12.342,3.386c-0.061,0.343-0.301,0.621-0.62,0.82
	C216.961,408.153,220.584,409.307,222.506,414.21z M534.094,391.383c0.153-1.208,0.669-3.512,0.376-5.011
	c-2.593-0.003-5.187-0.017-7.781-0.03c-0.232,1.199-0.303,2.466-0.438,3.658c-0.123,1.08-0.282,2.173-0.361,3.263
	c2.132-0.047,4.264-0.095,6.396-0.104C534.66,393.15,533.827,393.479,534.094,391.383z M508.622,394.274
	c2.121-0.261,4.236-0.497,6.334-0.617c0.135-1.102,0.34-2.206,0.501-3.289c0.196-1.328,0.328-2.719,0.622-4.043
	c-2.122,0.009-4.244,0.027-6.366,0.064c-0.226,1.201-0.337,2.445-0.508,3.634C509.003,391.424,508.731,392.854,508.622,394.274z
	 M495.697,357.176c1.832,1.173,3.647,2.371,5.458,3.575c3.259,2.166,6.507,4.348,9.789,6.479c0.059-0.212,0.125-0.423,0.173-0.637
	c1.871-8.322-7.668-14.803-14.888-9.64c-0.022,0.016-0.045,0.029-0.067,0.045C496.065,357.07,495.896,357.13,495.697,357.176z
	 M492.566,360.575c1.294,0.896,2.022,2.226,1.311,3.886c-0.061,0.141-0.142,0.266-0.216,0.396c0.383,0.279,0.732,0.6,1.12,0.872
	c0.845-1.045,2.216-1.534,3.657-1.049c2.181,0.733,4.089,2.601,4.779,4.809c0.01,0.033-0.002,0.062-0.001,0.094
	c0.05,0.007,0.1,0.015,0.136,0.036c0.451,0.265,0.9,0.535,1.349,0.803c0.187-2.361,1.103-4.045,1.257-4.309
	c-3.83-2.536-7.633-5.113-11.494-7.605C493.918,359.077,493.261,359.782,492.566,360.575z M501.769,369.876
	c-0.463-1.481-1.578-2.863-2.898-3.681c-1.386-0.859-3.308-1.107-3.397,1.12c-0.106,2.655,4.407,4.344,6.288,2.656
	c0.014-0.012,0.036-0.02,0.053-0.031C501.8,369.917,501.776,369.903,501.769,369.876z M492.604,363.951
	c0.084-0.834-0.313-1.64-0.952-2.301c-0.816,0.991-1.635,2.073-2.344,3.178C490.552,365.748,492.38,366.15,492.604,363.951z
	 M488.194,363.735c0.744-1.034,1.561-2.028,2.365-2.94c-1.243-0.73-2.784-0.981-3.843-0.335
	C486.891,361.644,487.432,362.792,488.194,363.735z M493.778,376.404c0.471,0.615,1.016,1.152,0.837,2.053
	c-0.446,2.243,0.691,5.276,3.688,4.001c0.093-0.04,0.241-0.075,0.411-0.103c0.037-0.047,0.085-0.098,0.157-0.155
	c2.005-1.6,4.236-3.515,6.259-5.655c-0.181-1.174-0.425-3.054-0.465-4.841c-0.669-0.388-1.333-0.786-1.997-1.183
	c-1.462,1.107-3.55,1.24-5.269,0.703c-1.699-0.532-3.874-1.936-3.344-4.05c0.098-0.388,0.261-0.734,0.455-1.054
	c-0.066,0.035-0.124,0.06-0.146,0.068c-0.248,0.094-0.694,0.227-0.94,0.055c-0.19-0.134-0.371-0.282-0.552-0.429
	c-0.977,0.836-2.343,1.099-3.631,0.471c-0.207-0.101-0.406-0.222-0.604-0.347c-1.65,2.951-2.253,5.899,0.35,7.561
	C490.453,374.435,492.692,374.986,493.778,376.404z M488.724,383.317c0.029,0.035,0.058,0.07,0.08,0.112
	c0.021,0.039,0.047,0.07,0.068,0.107c0.587,0.997,1.685,1.432,2.894,1.604c1.265,0.18,2.646,0.079,3.674,0.052
	c0.997-0.026,1.993-0.061,2.989-0.099c0.131-0.718,0.279-1.429,0.461-2.128c-1.706,0.619-3.91,1.007-5.459-0.035
	c-0.842-0.566-1.232-1.026-1.285-1.784C490.978,381.781,489.838,382.517,488.724,383.317z M481.802,389.624
	c0.208,0.06,0.332,0.178,0.27,0.381c-1.185,3.83,12.344,5.228,14.732,5.26c-0.02-0.057-0.049-0.106-0.045-0.179
	c0.136-2.158,0.695-4.354,1.076-6.478c0.103-0.573,0.196-1.153,0.29-1.734c-3.791,0.359-9.264,0.77-11.143-2.222
	C485.162,386.13,483.431,387.803,481.802,389.624z M471.365,406.051c-0.925,2.113-1.697,4.215-2.324,6.265
	c7.655,3.52,18.992,5.953,26.633,1.272c-0.413-3.217-0.329-6.414-0.017-9.606c-7.356,4.516-14.642-0.362-22.451-1.102
	c-0.107-0.01-0.216-0.021-0.324-0.029C472.345,403.916,471.833,404.983,471.365,406.051z M354.608,319.503c0,2.708,0,5.417,0,8.125
	c4.679,0,9.357,0,14.036,0c0.136,0,0.258,0.013,0.37,0.032c1.243-0.454,2.732,0.365,0.971,1.18c1.415-0.654,0.841-0.674,1.213,1.146
	c0.284,1.39,0.585,2.777,0.893,4.163c1,4.518,2.039,9.027,3.082,13.536c2.959,12.793,5.966,25.575,8.947,38.363
	c4.145-0.04,8.289-0.087,12.434-0.152c-3.615-15.48-7.254-30.955-10.823-46.446c-1.294-5.614-2.604-11.227-3.8-16.863
	c-0.173-0.815-0.635-2.013-0.759-3.084C372.317,319.503,363.463,319.503,354.608,319.503z M354.608,386.235
	c3.822-0.016,7.646-0.025,11.468-0.048c4.989-0.029,9.978-0.062,14.967-0.105c-2.483-10.643-4.975-21.284-7.448-31.929
	c-1.531-6.59-3.077-13.179-4.525-19.787c-0.209-0.955-1.012-2.952-1.102-4.54c-4.453,0-8.906,0-13.359,0
	C354.608,348.629,354.608,367.432,354.608,386.235z M335.56,298.305c1.123,3.411,0.607,8.38-1.12,11.944
	c0.452-0.118,0.896-0.146,1.145-0.011c1.701,0.919,2.908,1.396,3.731-0.294c0.018-0.138,0.031-0.276,0.052-0.414
	c0.029-0.194,0.142-0.366,0.298-0.516c0.564-1.793,0.612-3.738,0.369-5.591c-0.246-1.88-0.669-4.05-1.797-5.627
	c-0.281-0.393-0.697-0.98-1.201-1.194c-0.086,0.051-0.225,0.145-0.377,0.327c-0.303,0.359-0.57,0.732-0.826,1.125
	C335.774,298.145,335.679,298.229,335.56,298.305z M326.96,296.845c0.172,0.269,0.33,0.543,0.456,0.826
	c1.794,4.04,2.076,10.985-1.16,14.367c0.587-0.189,1.211-0.262,1.495-0.038c1.976,1.558,2.889,1.265,3.974-1.036
	c0.957-2.029,1.469-4.303,1.543-6.544c0.091-2.74-0.747-10.771-5.216-7.868C327.862,296.675,327.422,296.783,326.96,296.845z
	 M305.887,304.469c4.202,0.595,4.567,8.857,4.11,12.836c9.313,0,18.627,0,27.94,0c0.78-1.557,0.991-3.231,1.138-4.931
	c-1.761,0.563-3.802,0.198-5.49-0.631c-1.957,2.893-4.926,4.146-8.552,1.287c-0.976,0.602-2.163,0.96-3.602,0.974
	c-6.099,0.058-10.399-6.979-8.243-12.466c0.281-0.714,3.026-0.972,2.854-0.532c-1.653,4.205,0.663,9.773,5.007,11.436
	c6.291,2.408,5.247-11.949,2.886-14.983c-1.513-1.942-4.476-3.812-7.036-4.219C311.313,292.35,307.829,299.779,305.887,304.469z
	 M295.187,317.305c3.996,0,7.991,0,11.987,0c0.272-2.647,0.093-5.488-0.668-8.009c-0.313-1.038-0.689-2.385-1.563-3.109
	c-0.003-0.002-0.006-0.003-0.009-0.005c-0.345,0.177-0.847,0.295-1.31,0.35c-0.88,0.86-1.741,2.58-2.028,3.083
	c-1.295,2.271-2.693,4.892-4.979,6.319c-0.429,0.268-0.897,0.473-1.379,0.635C295.2,316.814,295.19,317.058,295.187,317.305z
	 M180.936,280.057c10.212-5.642,25.208-8.942,30.429-20.434c5.802-12.774,3.269-26.412,0.001-39.483
	c-1.33-5.322-2.798-10.672-4.88-15.757c-1.287-3.145-2.817-7.233-5.541-9.66c-3.055,3.439-7.729,3.721-12.227,3.615
	c1.217,0.962,2.161,2.182,1.554,3.619c-0.738,1.746-3.43,2.441-5.074,2.746c-3.942,0.73-8.648,0.668-12.802-0.599
	c-3.44-0.845-6.204-2.36-7.783-3.372c-0.063,6.618-4.558,12.362-11.021,12.531c2.387,10.501,3.124,22.197-4.702,30.634
	c-0.467,0.504-2.056,1.049-2.68,0.592c-0.838-0.613-1.763-1.254-2.661-1.654c-0.931-0.083-1.906-0.107-2.784-0.008
	c-0.442,0.326-0.823,0.87-1.108,1.726c-0.699,2.099-0.801,4.389-0.43,6.567c0.367,2.156,1.016,4.766,2.661,6.337
	c2.149,2.052,3.834,0.518,5.329-1.324c-0.088-0.416,0.355-0.795,0.916-1.024c0.827-0.445,2.901-0.661,2.364,0.032
	c-0.097,0.125-0.202,0.253-0.308,0.383c3.362,5.451,6.443,11.593,5.962,18.185c-0.317,4.353-1.719,8.389-3.462,12.309
	c0.029,0.318-0.124,0.667-0.417,0.929c-0.729,1.585-1.501,3.154-2.278,4.718c-0.032,0.064-0.082,0.125-0.141,0.183
	c1.426,4.536,4.783,8.44,9.387,10.017c6.512,2.231,11.97-0.263,15.488-5.788c-0.146-0.131-0.238-0.31-0.239-0.55
	c-0.018-3.048-1.126-7.973,0.454-10.817C176.2,282.444,178.76,281.259,180.936,280.057z M186.523,278.747
	c-2.081,0.949-4.151,2.014-5.875,3.244C181.999,281.188,184.086,280.047,186.523,278.747z M160.086,208.244
	c0.305-0.579,0.562-1.199,0.776-1.837C160.612,207.036,160.352,207.657,160.086,208.244z M198.826,400.563
	c0.009-0.025,0.01-0.046,0.021-0.072c1.258-3.091,2.936-5.534,4.907-7.439c-0.554,0.009-0.98-0.158-0.876-0.573
	c0.293-1.161-0.269-3.041-0.415-4.219c-0.41-3.292-0.856-6.579-1.31-9.865c-1.282-9.319-2.612-18.631-3.919-27.947
	c-1.174-8.37-2.375-16.738-3.399-25.127c-0.184-1.5-1.277-5.075-0.494-6.98c0.022-0.098,0.056-0.195,0.106-0.288
	c0.014-0.024,0.027-0.05,0.042-0.074c0.288-0.467,0.729-0.792,1.404-0.875c0.617-0.076,0.944,0.023,1.063,0.202
	c12.865,0,25.729,0,38.595,0c-8.445-10.657-17.437-20.866-29.803-27.019c-8.661,1.4-17.873,0.477-25.891-2.49
	c-0.391-0.145-0.575-0.349-0.623-0.571c-0.683-0.159-1.076-0.255-1.076-0.255s0.001-0.037,0.004-0.089
	c0.002-0.038,0.009-0.1,0.015-0.162c-0.009,0.053-0.019,0.106-0.026,0.16c-0.381,2.535,0.145,5.702,0.24,7.842
	c0.414,0.055,0.653,0.249,0.426,0.64c-2.682,4.6-7.011,7.353-11.619,8.289c-1.957,0.397-3.962,0.465-5.916,0.205
	c-6.119-0.815-11.713-4.843-13.572-12.079c-0.098-0.379,0.38-0.736,0.974-0.952c0.56-1.121,1.132-2.263,1.687-3.424
	c-0.074-0.003-0.157-0.007-0.236-0.011c-1.119,0.034-2.252,0.084-3.395,0.144c-25.555,6.097-46.916,21.476-61.549,43.348
	c-14.447,21.593-22.806,46.701-28.283,71.933c-2.786,12.834-6.105,28.117,1.01,39.829c1.001,1.648,2.206,3.225,3.65,4.715
	c1.38,1.423,2.881,2.676,4.46,3.809c9.415,6.749,21.993,8.632,33.302,8.992c27.967,0.891,56.76-5.492,83.24-14.374
	c-0.075-1.61-0.797-3.723-1.015-4.898c-0.733-3.973-1.526-7.934-2.363-11.886c-1.835-8.664-3.771-17.321-6.147-25.855
	c-28.906,6.511-58.522,10.369-88.172,10.456c-1.959,0.006-0.22-1.927,1.051-1.931c5.07-0.015,10.142-0.151,15.21-0.387
	c12.714-22.348,12.644-50.014,27.812-71.189c0.483-0.675,2.988-0.734,2.85-0.541c-15.261,21.305-15.092,49.182-28.043,71.601
	c23.656-1.271,47.222-4.847,70.281-10.117c0.521-0.119,1.495-0.179,1.688,0.503c0.899,3.188,1.722,6.398,2.516,9.616
	c3.163-3.074,6.992-5.256,11.06-7.04C191.52,402.7,195.173,400.66,198.826,400.563z M219.2,387.719
	c0.199-3.332-1.275-7.871-1.7-10.832c-1.073-7.474-2.182-14.944-3.271-22.416c-0.973-6.668-1.968-13.335-2.819-20.02
	c-0.18-1.408-1.196-4.505-0.323-6.041c0.073-0.129,0.159-0.247,0.261-0.352c0.068-0.066,0.145-0.126,0.229-0.18
	c0.166-0.122,0.351-0.226,0.583-0.287c0.539-0.141,0.928-0.094,1.181,0.036c46.124,0,92.247,0,138.371,0c0-2.708,0-5.417,0-8.125
	c-37.847,0-75.693,0-113.539,0c-0.605,0.281-1.396,0.347-1.85,0c-13.381,0-26.764,0-40.146,0c0.069,0.763,0.144,1.526,0.23,2.288
	c0.343,3.008,0.731,6.011,1.131,9.012c1.142,8.588,2.354,17.167,3.563,25.746c1.167,8.279,2.352,16.555,3.466,24.841
	c0.364,2.714,1.682,6.899,1.329,9.888C209.709,388.583,214.338,387.528,219.2,387.719z M262.765,402.676
	c-0.277-0.088-0.463-0.266-0.458-0.56c0.117-7.445-0.964-14.99-1.725-22.381c-0.335-3.25-0.698-6.5-0.99-9.754
	c-0.064-0.717-0.502-2.308-0.03-2.971c0.02-0.027,0.047-0.052,0.072-0.077c0.206-0.438,0.696-0.813,1.39-0.813
	c3.642,0,7.282,0,10.924,0c0.091-6.835,0.804-14.653,5.537-19.98c4.284-4.821,10.602-6.905,16.931-7.175
	c6.941-0.295,14.545,1.027,19.622,6.209c5.42,5.533,7.263,12.92,7.378,20.492c0.002,0.164-0.058,0.315-0.154,0.453
	c3.866,0,7.732,0,11.6,0c0.358,0,0.632,0.074,0.833,0.194c0.6-0.029,1.062,0.125,0.909,0.516c-0.418,1.074,1.149,5.117,1.461,6.428
	c1.02,4.292,2.059,8.581,3.095,12.869c0.013,0.055,0.026,0.11,0.04,0.165c4.171-0.01,8.342-0.028,12.512-0.044
	c0-18.807,0-37.614,0-56.42c-45.95,0-91.899,0-137.85,0c0.055,0.547,0.107,1.094,0.173,1.639c0.282,2.354,0.598,4.704,0.922,7.052
	c0.972,7.023,2.003,14.039,3.031,21.054c0.993,6.775,2.003,13.549,2.949,20.331c0.318,2.281,1.368,5.602,1.077,8.061
	c11.218,1.483,23.007,8.99,28.379,17.798c0.02-0.013,0.038-0.027,0.058-0.04c1.282-0.817,3.193-0.993,4.634-1.326
	C257.64,403.804,260.201,403.236,262.765,402.676z M312.125,365.301c0.007,0.326-0.22,0.604-0.546,0.818c2.31,0,4.618,0,6.928,0
	c-0.315-13.403-7.563-25.562-22.381-25.511c-7.294,0.025-14.885,2.07-18.289,9.15c-2.453,5.104-2.93,10.772-2.99,16.36
	c2.128,0,4.257,0,6.385,0c0.135-9.865,3.182-17.957,13.939-19.114C306.49,345.787,311.913,355.244,312.125,365.301z
	 M309.227,366.077c-0.158-7.515-3.095-17.064-12.188-17.382c-10.777-0.376-12.807,8.369-12.908,17.188
	c-0.001,0.082-0.027,0.16-0.063,0.236c8.389,0,16.779,0,25.168,0C309.234,366.104,309.227,366.093,309.227,366.077z
	 M316.232,408.118c0.063,1.607,0.149,3.244,0.107,4.826c0.149-0.02,0.302-0.022,0.453-0.031c0.28-0.015,0.469,0.009,0.598,0.056
	c4.672,0.291,9.563-0.176,14.207-0.4c3.325-0.161,6.738-0.245,10.022-0.845c1.327-0.243,0.346-0.834-0.009-2.381
	c-0.322-1.407-0.648-2.813-0.979-4.218c-1.396-5.92-2.825-11.832-4.256-17.744c-6.834,0.016-13.668,0.027-20.502,0.027
	c-1.376,0,1.354-1.09,1.904-1.09c6.111,0,12.224-0.011,18.336-0.023c-0.469-1.936-0.938-3.872-1.403-5.808
	c-0.8-3.323-1.609-6.645-2.371-9.978c-0.11-0.484-0.468-1.396-0.624-2.192c-23.188,0-46.375,0-69.563,0
	c0.12,1.557,0.639,3.978,0.711,4.678c0.355,3.47,0.723,6.938,1.064,10.409c0.598,6.07,1.366,12.219,1.271,18.329
	c-0.003,0.169-0.106,0.33-0.272,0.47c0.332-0.072,0.664-0.146,0.997-0.218c9.636-2.086,19.284-4.111,28.941-6.091l0.003-0.039
	c-0.538-0.015-0.979-0.225-0.979-0.722c0-2.32,0-4.64,0-6.96c0-0.073,0.019-0.143,0.046-0.21c-2.238-2.28-6.004-6.68-3.222-9.913
	c2.237-2.599,6.252-3.278,9.508-3.203c3.104,0.072,7.312,0.659,9.479,3.177c2.438,2.833-0.062,5.95-2.361,7.914
	c0.322,1.228,0.379,2.55,0.484,3.805c0.064,0.753,0.117,1.51,0.205,2.261c0.027,0.24,0.048,0.487,0.103,0.724
	c0.004,0.016,0.006,0.017,0.009,0.03c0.006,0.007,0.014,0.011,0.02,0.018c0.106,0.132,0.145,0.269,0.137,0.403
	c1.054-0.208,2.105-0.421,3.159-0.626c3.495-0.68,7.876-0.985,10.677,1.743c5.771,5.619,1.422,11.998-5.199,13.761
	C316.675,408.124,316.444,408.134,316.232,408.118z M252.024,423.456c-0.113,0.04-0.229,0.065-0.346,0.084
	c-0.018,3.188-0.381,6.565-1.179,9.852c0.024-0.009,0.048-0.017,0.065-0.021c0.31-0.074,0.592-0.098,0.909-0.113
	c0.063-0.003,0.111,0,0.166,0.001c-0.21-0.193,1.884,0.025,2.406,0.023c2.354-0.009,4.708-0.027,7.062-0.048
	c7.686-0.07,15.37-0.167,23.055-0.282c21.039-0.315,42.079-0.725,63.108-1.448c12.398-0.426,24.87-0.74,37.218-2.004
	c1.712-0.175,3.432-0.354,5.125-0.661c0.715-0.13,0.992-0.246,1.104-0.288c-1.405-6.661-2.924-13.298-4.445-19.933
	c-1.643-7.159-3.313-14.313-4.981-21.466c-5.354,0.051-10.708,0.086-16.062,0.118c-3.569,0.021-7.139,0.029-10.709,0.045
	c-0.47,0.9-2.811,1.265-2.811,0.459c0-0.149,0-0.298,0-0.447c-4.082,0.017-8.165,0.038-12.248,0.049
	c1.925,7.935,3.896,15.864,5.64,23.841c0.665,3.043-23.621,3.479-28.858,3.323c-0.334,3.363-1.576,6.295-5.456,7.814
	c-5.759,2.254-5.249-7.274-5.124-11.886c-0.645,0.099-1.293,0.149-1.949,0.089c-1.126-0.104-2.126,0.074-3.23,0.342
	c-0.518,0.125-0.93,0.038-1.219-0.157c0.088,6.257,1.421,13.011-5.394,15.915c-1.528,0.651-3.685,0.585-4.207-1.309
	c-0.972-3.519-0.391-7.647-0.591-11.25C276.746,417.3,264.063,419.209,252.024,423.456z M250.651,434.779
	c0.088-0.01,0.168-0.02,0.282-0.032c0.021-0.029,0.042-0.059,0.063-0.088C250.878,434.71,250.763,434.749,250.651,434.779z
	 M245.842,443.981c5.132-0.623,10.613-0.161,15.767-0.234c12.792-0.181,25.583-0.388,38.373-0.64
	c29.455-0.581,58.971-1.077,88.377-2.955c4.887-0.312,9.786-0.643,14.648-1.245c1.494-0.185,3.012-0.355,4.48-0.698
	c0.617-0.145,0.841-0.254,0.921-0.282c-3.197-15.187-6.786-30.294-10.307-45.408c-0.433-1.855-0.868-3.71-1.301-5.566
	c-4.144,0.069-8.288,0.116-12.432,0.16c2.775,11.899,5.567,23.797,8.186,35.732c0.342,1.56,2.227,5.357,0.338,6.435
	c-1.294,0.738-2.877,0.974-4.326,1.198c-10.17,1.572-20.647,1.746-30.909,2.171c-15.71,0.652-31.431,1.06-47.15,1.391
	c-14.238,0.299-28.478,0.533-42.718,0.694c-4.408,0.05-8.815,0.097-13.224,0.121c-1.326,0.007-3.068,0.291-4.463,0.016
	C249.165,438.15,247.769,441.279,245.842,443.981z M239.863,449.647c26.747,0.104,53.486,1.114,80.222,1.827
	c13.551,0.362,27.104,0.703,40.659,0.794c1.001,0.007,4.766-0.651,6.703-0.126c0.378-0.173,0.776-0.311,1.009-0.331
	c14.482-1.262,28.96-2.595,43.443-3.847c7.016-0.606,14.032-1.216,21.055-1.742c1.744-0.131,4.41-0.744,6.621-0.721
	c-0.258-1.192-0.47-2.357-0.634-3.467c-0.024-0.168,0.196-0.327,0.496-0.456c0.277-0.497,1.049-0.736,1.535-0.94
	c0.995-0.417,2.002-0.809,3.017-1.177c0.136-0.049,0.274-0.101,0.413-0.152c-11.037-0.093-22.067-0.61-33.105-0.639
	c-0.304-0.001-0.509-0.051-0.649-0.128c-1.412,1.058-3.707,1.27-5.304,1.518c-3.904,0.608-7.854,0.937-11.792,1.234
	c-29.594,2.234-59.358,2.667-89.019,3.277c-13.849,0.285-27.698,0.521-41.549,0.72c-4.316,0.062-8.634,0.12-12.95,0.177
	c-1.246,0.017-2.492,0.033-3.738,0.051c-0.239,0.004-1.738,0.1-0.953,0.002c-0.301,0.037-0.526,0.029-0.699-0.006
	C243.28,447.12,241.696,448.521,239.863,449.647z M441.222,442.122c0.032-0.027,0.063-0.051,0.099-0.088
	c0.011-0.034,0.021-0.068,0.032-0.103c-0.038,0.056-0.084,0.109-0.135,0.162C441.219,442.103,441.221,442.112,441.222,442.122z
	 M441.486,441.497c0.005-0.016,0.01-0.032,0.015-0.048c-0.011-0.007-0.021-0.014-0.032-0.021
	C441.475,441.45,441.483,441.473,441.486,441.497z M363.97,463.564c-0.477-1.54,0.188-3.781,0.542-5.167
	c0.388-1.513,1.177-3.231,1.255-4.799c-0.023,0.462-6.948,0.18-7.624,0.173c-13.627-0.127-27.251-0.456-40.874-0.827
	c-26.797-0.73-53.601-1.731-80.41-1.792c-6.881,2.783-14.859,2.511-21.308-0.852c1.217,2.18,1.945,5.119,2.662,6.701
	c1.534,3.385,2.154,3.961,5.926,3.963c3.065,0.001,6.13,0.003,9.194,0.008c14.911,0.021,29.822,0.072,44.732,0.21
	C306.695,461.447,335.388,461.731,363.97,463.564z M442.233,454.046c-0.974-2.3-1.745-4.729-2.326-7.097
	c-0.483,0.04-0.864-0.011-0.863-0.175c-0.002,0.374-29.109,2.401-31.752,2.632c-12.929,1.128-25.852,2.309-38.78,3.439
	c0.103,0.207,0.139,0.45,0.064,0.751c-0.301,1.216-2.598,7.618-1.733,9.538c0.461-0.299,1.244-0.625,1.613-0.657
	C393.05,460.32,417.851,457.995,442.233,454.046z M449.024,451.397c-0.03-0.007-0.064-0.009-0.092-0.019
	c-0.625,0.279-1.184,0.236-1.355-0.654c-0.047-0.244,0.463-0.49,1-0.627c-0.009-3.656-0.785-7.249-1.203-10.874
	c-0.003-0.026,0.014-0.048,0.015-0.074c-0.081,0.038-0.164,0.07-0.247,0.097c0.066,0.396-0.387,0.976-0.78,1.219
	c-0.39,0.241-0.917,0.389-1.365,0.216c-0.378,0.13-0.755,0.259-1.128,0.402c-0.652,0.25-1.304,0.507-1.948,0.78
	c-0.216,0.091-0.433,0.183-0.646,0.281c-0.023,0.011-0.026,0.013-0.045,0.022c0.852,5.264,2.708,11.68,5.831,16.354
	c0.253-1.018,0.511-2.035,0.763-3.053C448.032,454.625,448.813,452.764,449.024,451.397z M462.114,447.468
	c-0.081-0.021-0.154-0.05-0.211-0.095c-3.481-2.789-5.218-7.17-6.835-11.202c-1.833,0.819-3.679,1.656-5.505,2.59
	c0.418,3.577,1.145,7.114,1.193,10.716c0.163-0.004,0.352,0.015,0.402,0.137c0.084,0.203,0.075,0.465,0.025,0.74
	c0.123-0.05,0.26-0.084,0.404-0.098C455.478,449.903,458.94,448.909,462.114,447.468z M474.644,438.514
	c-0.187,0.154-0.503,0.304-0.828,0.404c-0.371,0.115-0.75,0.165-0.939,0.078c-3.491-1.608-6.553-4.125-8.029-7.726
	c-2.456,1.548-5.097,2.798-7.802,4.016c0.053,0.042,0.107,0.082,0.133,0.145c1.607,4.006,3.288,8.349,6.753,11.125
	c0.008,0.007,0.011,0.014,0.018,0.021c3.748-1.979,7.08-4.606,10.201-7.591C474.314,438.827,474.48,438.673,474.644,438.514z
	 M483.004,429.377c-2.001-0.294-3.964-0.648-5.853-1.043c-2.479-0.519-4.466-1.322-6.042-2.382c-1.361,1.588-2.86,2.921-4.458,4.085
	c0.077,0.041,0.135,0.097,0.162,0.173c1.32,3.672,4.354,6.259,7.826,7.858c0.215,0.099,0.207,0.235,0.08,0.375
	C477.594,435.632,480.302,432.535,483.004,429.377z M518.03,420.216c-3.914,2.968-7.736,5.932-12.235,7.905
	c-0.119,0.218-0.344,0.417-0.714,0.525c-0.005,0.001-0.01,0.002-0.016,0.004c-2.355,3.54-4.69,7.092-6.889,10.722
	c0.145-0.04,0.296-0.058,0.447-0.04c3.111,0.36,6.229,0.394,9.357,0.395c0.73,0,0.997,0.398,0.931,0.801
	c-0.067,0.41-0.481,0.822-1.114,0.822c-3.314,0-6.622-0.027-9.918-0.408c-0.244-0.028-0.41-0.097-0.522-0.188
	c-1.959,3.307-3.8,6.682-5.424,10.184c3.755,1.021,7.779,0.36,11.61,0.102c0.046-0.059,0.09-0.117,0.123-0.169
	c0.529-0.84,1.051-1.684,1.563-2.534c1.241-2.055,2.466-4.12,3.675-6.194c0.296-0.508,0.592-1.017,0.889-1.525
	c2.089-3.583,4.177-7.175,6.095-10.851C517.522,426.635,518.669,423.038,518.03,420.216z M511.831,415.481
	c-0.777-0.107-4.28-0.331-7.523-0.561c-2.656,6.348-8.841,11.448-15.637,13.213c4.902,0.424,9.842,0.518,14.631-0.635
	c0.031-0.014,0.057-0.029,0.092-0.042c5.22-1.963,9.415-5.367,13.814-8.689c0.068-0.052,0.145-0.091,0.223-0.126
	C516.529,417.053,514.781,415.888,511.831,415.481z M496.162,414.931c-0.007-0.052-0.002-0.101,0.003-0.149
	c-8.116,4.451-19.217,2.678-27.506-0.81c-0.442,3.851-0.426,7.789,3.18,10.194c0.377-0.016,0.655,0.026,0.583,0.126
	c-0.04,0.057-0.085,0.106-0.126,0.162c0.053,0.031,0.098,0.065,0.151,0.095c3.274,1.826,6.729,2.518,10.362,2.968
	c0.195-0.082,0.398-0.13,0.586-0.12c5.268,0.298,10.723-2.279,14.596-6.196c1.867-1.888,3.365-4.084,4.292-6.428
	c-0.259-0.02-0.508-0.039-0.751-0.058c-1.84-0.145-3.185-0.278-3.196-0.367C498.415,414.967,496.226,415.422,496.162,414.931z
	 M497.22,396.448c-1.718,0.007-3.422-0.081-5.103-0.329c-1.964-0.29-10.766-1.303-12.138-4.347
	c-2.439,3.033-4.613,6.357-6.434,9.773c0.008,0,0.018-0.001,0.025,0c5.826,0.424,12.235,4.18,17.998,2.811
	c0.639-0.151,1.268-0.367,1.889-0.656c0.507-0.236,1.008-0.515,1.501-0.856c0.217-0.15,0.536-0.221,0.845-0.225
	c0.214-1.844,0.479-3.687,0.754-5.532C496.6,396.808,496.88,396.589,497.22,396.448z M498.698,395.235
	c2.561-0.084,5.149-0.372,7.741-0.691c0.108-1.428,0.38-2.868,0.585-4.276c0.183-1.255,0.302-2.57,0.553-3.833
	c-2.363,0.055-4.727,0.128-7.088,0.24c-0.063,0.003-0.138,0.009-0.203,0.013c-0.118,0.732-0.234,1.463-0.361,2.183
	c-0.348,1.958-0.86,3.98-0.984,5.97C498.931,394.991,498.83,395.12,498.698,395.235z M523.722,393.301
	c0.09-1.14,0.258-2.283,0.39-3.412c0.136-1.162,0.202-2.398,0.452-3.557c-2.12-0.01-4.239-0.017-6.359-0.015
	c-0.258,1.252-0.383,2.558-0.566,3.805c-0.166,1.132-0.387,2.286-0.521,3.437C519.317,393.46,521.519,393.364,523.722,393.301z
	 M542.046,381.187c-1.64,1.337-3.241,2.707-4.757,4.189c-0.153,0.15-0.408,0.25-0.685,0.303c0.471,1.749,0.333,4.622-0.531,6.582
	c0.232-0.129,0.491-0.213,0.725-0.208C541.397,392.136,544.279,384.916,542.046,381.187z M475.007,384.594
	c-5.622,0-11.244,0-16.865,0c-0.702,0-2.351,1.064-0.891,1.064c5.622,0,11.244,0,16.865,0
	C474.818,385.659,476.467,384.594,475.007,384.594z M466.022,396.702c-9.234,0-18.47,0-27.705,0c-0.488,0-2.487,0.941-1.395,0.941
	c9.234,0,18.47,0,27.705,0C465.116,397.644,467.115,396.702,466.022,396.702z M448.486,417.451c-0.794,0-2.321,1.204-0.854,1.204
	c3.347,0,6.692,0,10.038,0c0.794,0,2.321-1.204,0.854-1.204C455.179,417.451,451.832,417.451,448.486,417.451z" fill="#303f9f"></path>
</svg>