<svg width="61" height="43" viewBox="0 0 61 43" fill="none" xmlns="http://www.w3.org/2000/svg">
<path d="M10.576 22.32H16.6C16.096 21.144 15.016 20.472 13.576 20.472C12.16 20.472 11.08 21.144 10.576 22.32ZM13.576 27.576C14.776 27.576 15.712 27.12 16.288 26.28H19.432C18.64 28.704 16.504 30.216 13.6 30.216C9.88 30.216 7.384 27.72 7.384 24C7.384 20.304 9.88 17.832 13.6 17.832C17.32 17.832 19.792 20.304 19.792 24C19.792 24.336 19.768 24.648 19.744 24.96H10.36C10.672 26.616 11.872 27.576 13.576 27.576ZM27.4199 13.032V15.672C25.4519 15.672 24.5159 16.344 24.2999 18H27.0119V20.64H24.2759V30H21.3959V20.64H20.1959V18H21.4199C21.6839 14.76 23.7479 13.032 27.4199 13.032ZM27.5716 23.28C27.5716 19.632 29.8756 17.784 33.5236 17.784V20.424C31.6036 20.424 30.4516 21.36 30.4516 23.28V30H27.5716V23.28ZM36.8729 22.32H42.8969C42.3929 21.144 41.3129 20.472 39.8729 20.472C38.4569 20.472 37.3769 21.144 36.8729 22.32ZM39.8729 27.576C41.0729 27.576 42.0089 27.12 42.5849 26.28H45.7289C44.9369 28.704 42.8009 30.216 39.8969 30.216C36.1769 30.216 33.6809 27.72 33.6809 24C33.6809 20.304 36.1769 17.832 39.8969 17.832C43.6169 17.832 46.0889 20.304 46.0889 24C46.0889 24.336 46.0649 24.648 46.0409 24.96H36.6569C36.9689 26.616 38.1689 27.576 39.8729 27.576ZM56.6151 13.2H59.4951V24.024C59.4951 27.888 56.7351 30.192 53.2071 30.192C49.5831 30.192 47.0871 27.72 47.0871 24.024C47.0871 20.304 49.5831 17.808 53.0631 17.808C54.7911 17.808 56.0391 18.432 56.6151 19.176V13.2ZM49.9671 24C49.9671 26.232 51.2871 27.552 53.2791 27.552C55.2951 27.552 56.6151 26.232 56.6151 24C56.6151 21.768 55.2951 20.448 53.2791 20.448C51.2871 20.448 49.9671 21.768 49.9671 24Z" fill="#45B09E"/>
<path d="M5.4 14.68V27.448C5.4 28.552 5.128 29.392 4.584 29.968C4.056 30.544 3.072 31.064 1.632 31.528L0.384 29.224C1.232 28.92 1.752 28.64 1.944 28.384C2.152 28.128 2.256 27.664 2.256 26.992V14.68H5.4Z" fill="#45B09E"/>
</svg>
