<svg width="24" height="24" viewBox="0 0 24 24" fill="none" xmlns="http://www.w3.org/2000/svg">
<path fill-rule="evenodd" clip-rule="evenodd" d="M11.7072 2C8.21675 2 5.28447 4.62451 4.89902 8.09361L4.62015 10.603C4.49382 11.7039 4.13547 12.7655 3.56876 13.7178L2.89214 14.8456C2.62655 15.2882 2.39622 15.672 2.24456 15.994C2.09094 16.3202 1.94863 16.7195 2.01809 17.1597C2.08937 17.6115 2.32186 18.0221 2.67255 18.3156C3.0143 18.6017 3.4299 18.6851 3.78865 18.7212C4.14279 18.7568 4.59046 18.7568 5.10664 18.7568H7.83172C8.06925 19.6341 8.53693 20.4251 9.19187 21.0114C9.89646 21.6422 10.7799 22 11.707 22C12.6342 22 13.5176 21.6422 14.2222 21.0114C14.8771 20.4251 15.3448 19.6341 15.5824 18.7568H18.3078C18.8239 18.7568 19.2716 18.7568 19.6257 18.7212C19.9845 18.6851 20.4001 18.6017 20.7419 18.3156C21.0925 18.0221 21.325 17.6115 21.3963 17.1597C21.4658 16.7195 21.3235 16.3202 21.1698 15.994C21.0182 15.672 20.7879 15.2882 20.5223 14.8456L20.5223 14.8456L19.8456 13.7178C19.2789 12.7655 18.9206 11.7039 18.7943 10.603L18.5154 8.09362C18.1299 4.62451 15.1977 2 11.7072 2ZM13.8718 18.7568H9.54232C9.71757 19.1738 9.96986 19.5314 10.2735 19.8032C10.7017 20.1865 11.2063 20.3784 11.707 20.3784C12.2078 20.3784 12.7124 20.1865 13.1406 19.8032C13.4442 19.5314 13.6965 19.1738 13.8718 18.7568ZM6.51072 8.27269C6.80493 5.62483 9.04304 3.62162 11.7072 3.62162C14.3714 3.62162 16.6095 5.62483 16.9037 8.27269L17.1832 10.7878C17.3357 12.1165 17.7682 13.3978 18.4521 14.5471L19.1107 15.6449C19.4034 16.1326 19.5902 16.4459 19.7028 16.685C19.7719 16.8318 19.788 16.9013 19.7917 16.9219C19.7801 16.9756 19.7524 17.0245 19.7124 17.0621C19.6928 17.0695 19.6249 17.0914 19.4634 17.1077C19.2005 17.1342 18.8358 17.1351 18.267 17.1351H5.14745C4.57865 17.1351 4.21394 17.1342 3.95098 17.1077C3.78946 17.0914 3.72157 17.0695 3.70206 17.0621C3.66196 17.0245 3.63427 16.9756 3.62268 16.9219C3.62637 16.9013 3.64246 16.8318 3.71163 16.685C3.82423 16.4459 4.01103 16.1326 4.30368 15.6449L4.96228 14.5471C5.64624 13.3978 6.07873 12.1165 6.2312 10.7878L6.51072 8.27269Z" fill="#666666"/>
<circle cx="17.1124" cy="6.05401" r="2.16216" fill="#3B9678"/>
</svg>
