<svg width="28" height="28" viewBox="0 0 28 28" fill="none" xmlns="http://www.w3.org/2000/svg">
<path fill-rule="evenodd" clip-rule="evenodd" d="M23.1465 21.2253C23.1465 25.0706 17.8732 25.5151 13.9077 25.5151L13.6239 25.5149C11.0974 25.5088 4.6665 25.3492 4.6665 21.202C4.6665 17.4351 9.72792 16.9317 13.6632 16.9127L14.1914 16.9124C16.7178 16.9185 23.1465 17.078 23.1465 21.2253ZM13.9077 18.6621C8.9365 18.6621 6.4165 19.5161 6.4165 21.202C6.4165 22.903 8.9365 23.7651 13.9077 23.7651C18.8777 23.7651 21.3965 22.9111 21.3965 21.2253C21.3965 19.5243 18.8777 18.6621 13.9077 18.6621ZM13.9077 2.33301C17.3237 2.33301 20.1015 5.11201 20.1015 8.52801C20.1015 11.944 17.3237 14.7218 13.9077 14.7218H13.8703C10.4613 14.7113 7.69984 11.9312 7.71147 8.52451C7.71147 5.11201 10.4905 2.33301 13.9077 2.33301ZM13.9077 3.99901C11.4098 3.99901 9.37748 6.03017 9.37748 8.52801C9.36934 11.0177 11.3865 13.0477 13.8738 13.057L13.9077 13.89V13.057C16.4043 13.057 18.4355 11.0247 18.4355 8.52801C18.4355 6.03017 16.4043 3.99901 13.9077 3.99901Z" fill="black" fill-opacity="0.6"/>
</svg>
